<?xml version="1.0" encoding="utf-8"?>
<!-- Generator: Adobe Illustrator 23.0.0, SVG Export Plug-In . SVG Version: 6.00 Build 0)  -->
<svg version="1.1" id="Capa_1" xmlns="http://www.w3.org/2000/svg" xmlns:xlink="http://www.w3.org/1999/xlink" x="0px" y="0px"
	 viewBox="0 0 121.8 119.2" style="enable-background:new 0 0 121.8 119.2;" xml:space="preserve">
<style type="text/css">
	.st0{fill:#4C4948;}
	.st1{fill:#E0DFDE;}
	.st2{fill:#FFFFFF;}
	.st3{fill:#B7CACE;}
	.st4{fill:#980F2E;}
	.st5{fill:#CECDCC;}
	.st6{fill:#9DAFB2;}
</style>
<g>
	<path class="st0" d="M116.7,6.7H5.1C2.3,6.7,0,9,0,11.8v76.4c0,2.8,2.3,5.1,5.1,5.1h47.6h16.4h47.6c2.8,0,5.1-2.3,5.1-5.1V11.8
		C121.8,9,119.5,6.7,116.7,6.7z"/>
	<path class="st1" d="M0,82.1v6.1c0,2.8,2.3,5.1,5.1,5.1h111.6c2.8,0,5.1-2.3,5.1-5.1v-6.1H0z"/>
	<g>
		<rect x="6.3" y="12.1" class="st2" width="109.1" height="63.7"/>
	</g>
	<path class="st3" d="M109.3,75.7V3.6c0-2-1.6-3.6-3.6-3.6H16.4c-2,0-3.6,1.6-3.6,3.6v72.1H109.3z"/>
	<path class="st4" d="M109.3,13.7V3.6c0-2-1.6-3.6-3.6-3.6H16.4c-2,0-3.6,1.6-3.6,3.6v10.1H109.3z"/>
	<g>
		<g>
			<path class="st2" d="M22.8,6.9c0,1.3-1.1,2.4-2.4,2.4c-1.3,0-2.4-1.1-2.4-2.4s1.1-2.4,2.4-2.4C21.7,4.6,22.8,5.6,22.8,6.9z"/>
			<path class="st2" d="M30.2,6.9c0,1.3-1.1,2.4-2.4,2.4c-1.3,0-2.4-1.1-2.4-2.4s1.1-2.4,2.4-2.4C29.1,4.6,30.2,5.6,30.2,6.9z"/>
			<path class="st2" d="M37.5,6.9c0,1.3-1.1,2.4-2.4,2.4c-1.3,0-2.4-1.1-2.4-2.4s1.1-2.4,2.4-2.4C36.5,4.6,37.5,5.6,37.5,6.9z"/>
		</g>
	</g>
	<rect x="46.7" y="93.4" class="st1" width="28.3" height="14.3"/>
	<path class="st5" d="M62.5,93.4H46.7V97h5.1c5.9,0,10.7,4.8,10.7,10.7l0,0H75V97v-3.6H62.5z"/>
	<path class="st1" d="M97.1,111c0-1.8-1.5-3.3-3.3-3.3H71.5H50.3H27.9c-1.8,0-3.3,1.5-3.3,3.3h0v8.2h72.5L97.1,111L97.1,111z"/>
	<path class="st5" d="M97.1,111c0-1.8-1.5-3.3-3.3-3.3H86H71.5H50.3H27.9c-1.8,0-3.3,1.5-3.3,3.3h0v2.3h0c0-1.8,1.5-3.3,3.3-3.3
		h22.3h21.3h12.1c3,0,5.4,2.4,5.4,5.4l0,3.8h8v-5.9L97.1,111L97.1,111z"/>
	<path class="st2" d="M83.4,28.6c-5.1,0-9.3-3.8-9.3-8.4H47.2c0,4.6-4.1,8.4-9.3,8.4h0v15c0,20.6,22.7,28,22.7,28s22.7-7.4,22.7-28
		L83.4,28.6L83.4,28.6z"/>
	<path class="st4" d="M51.7,45.5l3.8,3.8c0.4,0.4,1.1,0.4,1.5,0l13-13c1-1,2.7-1,3.8,0l0,0c1,1,1,2.7,0,3.8L59.3,54.7
		c-1.5,1.5-4,1.5-5.6,0l-5.6-5.6c-1.1-1.1-1-2.8,0.2-3.7l0,0C49.4,44.5,50.8,44.6,51.7,45.5z"/>
	<path class="st6" d="M109.3,54.5L83.4,28.6v15c0,19.7-20.7,27.3-22.6,28l4.1,4.1h44.4V54.5z"/>
</g>
</svg>
