<?xml version="1.0" standalone="no"?>
<!DOCTYPE svg PUBLIC "-//W3C//DTD SVG 20010904//EN"
 "http://www.w3.org/TR/2001/REC-SVG-20010904/DTD/svg10.dtd">
<svg version="1.0" xmlns="http://www.w3.org/2000/svg"
 width="80.000000pt" height="80.000000pt" viewBox="0 0 80.000000 80.000000"
 preserveAspectRatio="xMidYMid meet">
<metadata>
Created by potrace 1.10, written by Peter Selinger 2001-2011
</metadata>
<g transform="translate(0.000000,80.000000) scale(0.050000,-0.050000)"
fill="#ffffff" stroke="none">
<path d="M570 1377 c-356 -181 -450 -521 -217 -782 44 -50 67 -95 67 -135 0
-144 93 -268 219 -290 73 -13 224 26 247 64 9 14 32 26 51 26 20 0 53 16 74
36 22 19 71 51 111 69 40 19 109 75 155 124 l83 90 0 267 0 267 -69 81 c-188
219 -496 297 -721 183z m462 -192 l167 -95 0 -240 1 -240 -269 -155 c-368
-212 -342 -226 -335 182 l6 338 99 54 99 53 101 -54 101 -55 -6 -128 -6 -127
-96 -53 c-80 -44 -103 -49 -135 -29 -54 34 -59 31 -59 -33 0 -110 77 -116 245
-17 l145 86 6 172 6 173 -137 82 c-168 99 -162 99 -329 0 l-136 -81 0 -169 c0
-179 -1 -181 -61 -148 -34 18 -39 43 -38 205 l0 184 165 94 c212 122 253 122
466 1z"/>
<path d="M735 932 c-99 -75 6 -231 115 -172 89 48 51 199 -50 199 -16 0 -46
-12 -65 -27z"/>
</g>
</svg>
