<svg id="Capa_1" data-name="Capa 1" xmlns="http://www.w3.org/2000/svg" viewBox="0 0 450 450"><defs><style>.cls-1{fill:#e50445;opacity:0.12;}.cls-2{fill:#fff;}.cls-3{fill:#981732;}</style></defs><title>alert-retornar</title><circle class="cls-1" cx="225" cy="225" r="167.9"/><rect class="cls-2" x="188.61" y="164.49" width="121.02" height="121.02"/><path class="cls-3" d="M321.48,152.64H181.76a24.13,24.13,0,0,0-17.06,7.06l-56.77,56.77a12.07,12.07,0,0,0,0,17.06L164.7,290.3a24.12,24.12,0,0,0,17.05,7.06H321.48a24.12,24.12,0,0,0,24.12-24.12V176.76A24.12,24.12,0,0,0,321.48,152.64Zm-31.91,95.75a6,6,0,0,1,0,8.53L281,265.44a6,6,0,0,1-8.53,0l-23.39-23.39-23.39,23.39a6,6,0,0,1-8.53,0l-8.52-8.52a6,6,0,0,1,0-8.53L232.07,225l-23.39-23.39a6,6,0,0,1,0-8.53l8.52-8.52a6,6,0,0,1,8.53,0L249.12,208l23.39-23.39a6,6,0,0,1,8.53,0l8.53,8.52a6,6,0,0,1,0,8.53L266.18,225Z"/></svg>