<svg id="Capa_1" data-name="Capa 1" xmlns="http://www.w3.org/2000/svg" viewBox="0 0 450 450"><defs><style>.cls-1{fill:#e50445;opacity:0.12;}.cls-2{fill:#e8e8e8;}.cls-3{fill:#c1c0bf;}.cls-4{opacity:0.7;}.cls-5{fill:#9bbede;}.cls-6{fill:#981732;}.cls-7{fill:#fff;}</style></defs><title>alert-guardar-exito</title><circle class="cls-1" cx="225" cy="225" r="167.9"/><path class="cls-2" d="M279.3,40.22H106A14.57,14.57,0,0,0,91.41,54.79V373.24A14.57,14.57,0,0,0,106,387.81H344a14.57,14.57,0,0,0,14.57-14.57V116.78Z"/><path class="cls-3" d="M279.3,40.22l.13,63.89a12.71,12.71,0,0,0,12.7,12.67h66.46Z"/><g class="cls-4"><rect class="cls-3" x="142.68" y="159.19" width="164.65" height="14.97"/><rect class="cls-3" x="108.17" y="191.62" width="233.66" height="14.97"/><rect class="cls-3" x="108.17" y="224.05" width="233.66" height="14.97"/><rect class="cls-3" x="108.17" y="256.48" width="233.66" height="14.97"/><rect class="cls-3" x="108.17" y="288.91" width="233.66" height="14.97"/><rect class="cls-3" x="108.17" y="321.34" width="233.66" height="14.97"/></g><path class="cls-5" d="M200.23,120.71H196a3.5,3.5,0,0,1-2.91-2.24,31,31,0,0,0-1.38-3.32,3.45,3.45,0,0,1,.44-3.63l3-3a5.38,5.38,0,0,0,0-7.58l-4.85-4.86a5.42,5.42,0,0,0-7.59,0l-3,3a3,3,0,0,1-2.13.75,3.12,3.12,0,0,1-1.48-.3c-1.08-.51-2.21-1-3.34-1.39a3.46,3.46,0,0,1-2.24-2.89V91.07a5.39,5.39,0,0,0-5.37-5.38h-6.84A5.39,5.39,0,0,0,153,91.07v4.19a3.46,3.46,0,0,1-2.24,2.89,33.41,33.41,0,0,0-3.33,1.39,3.53,3.53,0,0,1-1.48.3,3,3,0,0,1-2.13-.75l-3-3a5.41,5.41,0,0,0-7.58,0L128.38,101a5.36,5.36,0,0,0,0,7.58l3,3a3.41,3.41,0,0,1,.46,3.63,31,31,0,0,0-1.39,3.32,3.46,3.46,0,0,1-2.89,2.24h-4.2a5.38,5.38,0,0,0-5.36,5.36v6.86a5.39,5.39,0,0,0,5.36,5.38h4.2a3.43,3.43,0,0,1,2.89,2.22,32.09,32.09,0,0,0,1.39,3.33,3.4,3.4,0,0,1-.46,3.62l-3,3a5.38,5.38,0,0,0,0,7.59l4.86,4.84a5.36,5.36,0,0,0,7.58,0l3-3a3.11,3.11,0,0,1,2.13-.78,3.25,3.25,0,0,1,1.48.33,32.09,32.09,0,0,0,3.33,1.39,3.44,3.44,0,0,1,2.24,2.89v4.19a5.38,5.38,0,0,0,5.38,5.36h6.84a5.38,5.38,0,0,0,5.37-5.36v-4.19a3.44,3.44,0,0,1,2.24-2.89,31.36,31.36,0,0,0,3.34-1.39,3.34,3.34,0,0,1,1.47-.33,3.12,3.12,0,0,1,2.14.78l3,3a5.37,5.37,0,0,0,7.59,0l4.85-4.84a5.4,5.4,0,0,0,0-7.59l-3-3a3.41,3.41,0,0,1-.43-3.62,36,36,0,0,0,1.39-3.33,3.42,3.42,0,0,1,2.89-2.22h4.19a5.38,5.38,0,0,0,5.36-5.38v-6.86A5.37,5.37,0,0,0,200.23,120.71Zm-22.72,8.8a15.72,15.72,0,1,1-15.73-15.72A15.73,15.73,0,0,1,177.51,129.51Z"/><path class="cls-6" d="M232.56,61.33h-2.94a2.46,2.46,0,0,1-2-1.57,20.46,20.46,0,0,0-1-2.33,2.42,2.42,0,0,1,.32-2.55l2.1-2.09a3.78,3.78,0,0,0,0-5.32l-3.4-3.4a3.8,3.8,0,0,0-5.33,0l-2.09,2.09a2.14,2.14,0,0,1-1.5.53,2.19,2.19,0,0,1-1-.21c-.76-.36-1.55-.69-2.35-1a2.42,2.42,0,0,1-1.57-2V40.53A3.78,3.78,0,0,0,208,36.76h-4.8a3.79,3.79,0,0,0-3.77,3.77v2.94a2.41,2.41,0,0,1-1.57,2,22.69,22.69,0,0,0-2.34,1,2.46,2.46,0,0,1-1,.21,2.11,2.11,0,0,1-1.5-.53l-2.1-2.09A3.73,3.73,0,0,0,188.23,43a3.68,3.68,0,0,0-2.66,1.09l-3.42,3.4a3.79,3.79,0,0,0,0,5.32l2.1,2.09a2.42,2.42,0,0,1,.32,2.55,22.53,22.53,0,0,0-1,2.33,2.42,2.42,0,0,1-2,1.57h-2.95a3.78,3.78,0,0,0-3.77,3.76V69.9a3.79,3.79,0,0,0,3.77,3.78h2.95a2.4,2.4,0,0,1,2,1.56,23.66,23.66,0,0,0,1,2.34,2.38,2.38,0,0,1-.32,2.53l-2.1,2.1a3.78,3.78,0,0,0,0,5.32l3.42,3.41a3.73,3.73,0,0,0,2.66,1.1,3.78,3.78,0,0,0,2.65-1.1l2.1-2.1a2.38,2.38,0,0,1,2.53-.31,22.62,22.62,0,0,0,2.34,1,2.41,2.41,0,0,1,1.57,2v2.94a3.78,3.78,0,0,0,3.77,3.76H208a3.77,3.77,0,0,0,3.77-3.76V91.53a2.42,2.42,0,0,1,1.57-2,21.9,21.9,0,0,0,2.35-1,2.29,2.29,0,0,1,1-.23,2.19,2.19,0,0,1,1.5.54l2.09,2.1a3.78,3.78,0,0,0,5.33,0l3.4-3.41a3.78,3.78,0,0,0,0-5.32l-2.1-2.1a2.36,2.36,0,0,1-.31-2.53c.36-.76.69-1.56,1-2.34a2.38,2.38,0,0,1,2-1.56h2.94a3.78,3.78,0,0,0,3.76-3.78V65.09A3.77,3.77,0,0,0,232.56,61.33ZM216.62,67.5a11,11,0,1,1-11-11A11,11,0,0,1,216.62,67.5Z"/><path class="cls-6" d="M305.4,365.76a69.68,69.68,0,1,1,69.68-69.68A69.76,69.76,0,0,1,305.4,365.76Z"/><path class="cls-7" d="M300,315.78l-21.36-29.54a5.64,5.64,0,0,1,1.27-7.88,5.63,5.63,0,0,1,7.89,1.29l13.59,18.79,67.93-67.93a5.64,5.64,0,0,1,8,8ZM281.78,284s0,0,0,0Z"/></svg>