<svg id="Capa_1" data-name="Capa 1" xmlns="http://www.w3.org/2000/svg" viewBox="0 0 450 450"><defs><style>.cls-1{fill:#e50445;opacity:0.12;}.cls-2{fill:#9bbede;}.cls-3{fill:#8ea7d7;}.cls-4{fill:#981732;}</style></defs><title>alert-periodo</title><circle class="cls-1" cx="225" cy="225" r="167.9"/><path class="cls-2" d="M238.59,224.51c0-27.57,63.11-17,82.7-95.42,15.82-63.37-2.12-70-2.12-70H132.07S112.9,66,130,129.09c21.2,78.46,82.69,67.85,82.69,95.42,0,36.05-59.37,17-82.69,95.42-18.62,62.61,2.12,70,2.12,70h187.1s17.94-6.6,2.12-70C303.82,250,238.59,260.56,238.59,224.51Z"/><path class="cls-3" d="M325.69,95H124.31c-11,0-19.9-7.55-19.9-16.87V64.21c0-9.32,8.91-16.88,19.9-16.88H325.69c11,0,19.9,7.56,19.9,16.88v13.9C345.59,87.43,336.68,95,325.69,95Z"/><path class="cls-4" d="M137.6,357.77c-2.41-6.76,7-41.16,9.9-47.44s71.71-48.16,77-47.68,70.86,35,79.07,49.49,9.77,45.63,9.77,45.63Z"/><path class="cls-3" d="M325.69,402.67H124.31c-11,0-19.9-7.56-19.9-16.88v-13.9c0-9.32,8.91-16.87,19.9-16.87H325.69c11,0,19.9,7.55,19.9,16.87v13.9C345.59,395.11,336.68,402.67,325.69,402.67Z"/><path class="cls-4" d="M225.72,205c-3.25,0-28.24-13.76-42.37-23.9s-10.86-14.49-5.43-16.3,101.76-1.09,105.75,2.9S265.2,185,255.42,191.91C248.26,197,231.88,205,225.72,205Z"/></svg>