<svg id="Capa_1" data-name="Capa 1" xmlns="http://www.w3.org/2000/svg" viewBox="0 0 450 450"><defs><style>.cls-1{fill:#e50445;opacity:0.12;}.cls-2{fill:#445ba6;}.cls-3{fill:#9bbede;}</style></defs><title>alert-ticketenviado</title><circle class="cls-1" cx="225" cy="225" r="167.9"/><polygon class="cls-2" points="244.56 226.15 262.23 245.1 396.9 188.93 244.56 226.15"/><polygon class="cls-3" points="250.84 163.63 237.54 183.69 246.54 203.36 226.36 206.79 208.53 245.93 401.23 187.62 250.84 163.63"/><polygon class="cls-2" points="246.54 203.36 237.54 183.69 341.92 188.57 246.54 203.36"/><path class="cls-2" d="M227.4,331.19l-2.44,0a1.49,1.49,0,0,1-1.47-1.5,1.44,1.44,0,0,1,1.5-1.46c3.84,0,7.65,0,11.84-.2h.06a1.49,1.49,0,0,1,.06,3C233.6,331.12,230.47,331.19,227.4,331.19Zm-14.33-.59h-.13c-4.08-.35-8.1-.88-11.94-1.56a1.48,1.48,0,0,1-1.2-1.72,1.5,1.5,0,0,1,1.72-1.2c3.75.67,7.68,1.18,11.68,1.52a1.48,1.48,0,0,1-.13,3Zm-23.4-4.28a1.72,1.72,0,0,1-.44-.06,86.59,86.59,0,0,1-11.3-4.35,1.48,1.48,0,1,1,1.26-2.68,84.88,84.88,0,0,0,10.91,4.19,1.48,1.48,0,0,1-.43,2.9Zm-21.48-10.11a1.46,1.46,0,0,1-.82-.25,79.5,79.5,0,0,1-9.54-7.5,1.48,1.48,0,1,1,2-2.18,76,76,0,0,0,9.18,7.21,1.49,1.49,0,0,1-.82,2.72Zm-17.48-16.06a1.51,1.51,0,0,1-1.16-.56,79.92,79.92,0,0,1-6.81-10,1.48,1.48,0,0,1,2.58-1.47,76.73,76.73,0,0,0,6.55,9.67,1.49,1.49,0,0,1-1.16,2.41ZM139,279.52a1.48,1.48,0,0,1-1.38-1,73.21,73.21,0,0,1-3.34-11.68,1.48,1.48,0,0,1,1.17-1.74,1.46,1.46,0,0,1,1.74,1.17,70.73,70.73,0,0,0,3.2,11.21,1.49,1.49,0,0,1-.86,1.91A1.66,1.66,0,0,1,139,279.52Zm-4.73-23.28a1.48,1.48,0,0,1-1.47-1.38c-.16-2.43-.24-5-.24-7.58v-.6c0-1.29,0-2.59.07-3.88a1.49,1.49,0,0,1,1.49-1.43h0a1.48,1.48,0,0,1,1.44,1.53c0,1.26-.07,2.52-.07,3.78v.6c0,2.54.08,5,.23,7.39a1.48,1.48,0,0,1-1.39,1.57Z"/><path class="cls-2" d="M146.7,232.73q-3.39,0-6.68-.08a1.49,1.49,0,0,1,0-3h0q5.75.15,11.84,0a1.41,1.41,0,0,1,1.52,1.46,1.49,1.49,0,0,1-1.46,1.51C150.21,232.71,148.45,232.73,146.7,232.73Zm17.18-.5a1.48,1.48,0,0,1-.08-3c3.84-.22,7.82-.51,11.84-.86a1.48,1.48,0,1,1,.26,3c-4.05.36-8.07.65-11.94.87ZM128.16,232H128c-4.13-.32-8.14-.76-11.94-1.3a1.49,1.49,0,0,1-1.26-1.68,1.51,1.51,0,0,1,1.68-1.26c3.73.53,7.69,1,11.75,1.28a1.48,1.48,0,0,1-.11,3Zm59.46-1.89a1.49,1.49,0,0,1-.17-3q5.79-.67,11.78-1.53a1.47,1.47,0,0,1,1.68,1.26,1.49,1.49,0,0,1-1.26,1.68q-6,.85-11.85,1.54Zm-83-1.52a1.86,1.86,0,0,1-.33,0c-2.87-.64-5.66-1.37-8.31-2.16-1.12-.33-2.23-.68-3.31-1a1.48,1.48,0,1,1,.93-2.82c1.06.35,2.13.69,3.23,1,2.58.77,5.31,1.48,8.11,2.1a1.49,1.49,0,0,1-.32,2.94ZM82.06,221a1.51,1.51,0,0,1-.65-.15,72.69,72.69,0,0,1-10.47-6.17,1.49,1.49,0,0,1,1.73-2.42,68.59,68.59,0,0,0,10,5.92,1.49,1.49,0,0,1-.65,2.82Zm51.06-1.33a1.49,1.49,0,0,1-1.49-1.48v-.53c0-3.74-.15-7.54-.44-11.29a1.48,1.48,0,0,1,1.36-1.6,1.51,1.51,0,0,1,1.6,1.37c.3,3.83.45,7.71.45,11.52v.53A1.48,1.48,0,0,1,133.12,219.68ZM62.89,207.1a1.47,1.47,0,0,1-1.1-.48,51.51,51.51,0,0,1-7.13-9.94,1.48,1.48,0,1,1,2.6-1.43A48.68,48.68,0,0,0,64,204.62a1.49,1.49,0,0,1-.1,2.1A1.45,1.45,0,0,1,62.89,207.1Zm68.32-11.2a1.48,1.48,0,0,1-1.46-1.23,101.11,101.11,0,0,0-2.62-11.46,1.48,1.48,0,1,1,2.84-.84,105,105,0,0,1,2.7,11.8,1.48,1.48,0,0,1-1.21,1.71Zm-79.7-9.48a1.49,1.49,0,0,1-1.43-1.08c-.18-.67-.35-1.34-.51-2a28.47,28.47,0,0,1-.79-6.57,25.41,25.41,0,0,1,.28-3.81,1.48,1.48,0,1,1,2.93.45,21.87,21.87,0,0,0-.25,3.36,26,26,0,0,0,.71,5.89c.16.64.32,1.28.49,1.9a1.48,1.48,0,0,1-1,1.83A1.83,1.83,0,0,1,51.51,186.42Zm72.82-13.3a1.5,1.5,0,0,1-1.34-.84,50.26,50.26,0,0,0-6.08-9.81,1.49,1.49,0,0,1,.23-2.09,1.47,1.47,0,0,1,2.08.23A53.23,53.23,0,0,1,125.67,171a1.49,1.49,0,0,1-.7,2A1.57,1.57,0,0,1,124.33,173.12Zm-69.14-9.29a1.47,1.47,0,0,1-.89-.3,1.49,1.49,0,0,1-.29-2.08,33.66,33.66,0,0,1,9.29-8.21,1.5,1.5,0,0,1,2,.49,1.48,1.48,0,0,1-.49,2,30.83,30.83,0,0,0-8.48,7.47A1.46,1.46,0,0,1,55.19,163.83ZM109.33,155a1.5,1.5,0,0,1-.81-.24,33.36,33.36,0,0,0-10.4-4.5,1.48,1.48,0,0,1,.71-2.88,36.35,36.35,0,0,1,11.32,4.9,1.48,1.48,0,0,1-.82,2.72ZM75,151.23a1.49,1.49,0,0,1-.42-2.91,56.3,56.3,0,0,1,11.66-2.11h.45a1.58,1.58,0,0,1,1.51,1.45,1.49,1.49,0,0,1-1.46,1.51l-.32,0a51.9,51.9,0,0,0-11,2A1.52,1.52,0,0,1,75,151.23Z"/></svg>