<svg id="Capa_1" data-name="Capa 1" xmlns="http://www.w3.org/2000/svg" viewBox="0 0 450 450"><defs><style>.cls-1{fill:#e50445;opacity:0.12;}.cls-2{fill:#9bbede;}.cls-3{fill:#981732;}.cls-4,.cls-5{fill:#fff;}.cls-4{opacity:0.38;}</style></defs><title>alert-ticketnoreaperturar</title><circle class="cls-1" cx="225" cy="225" r="167.9"/><rect class="cls-2" x="38.04" y="164.95" width="373.93" height="120.1" rx="8.05"/><path class="cls-3" d="M100.91,261.39a38.67,38.67,0,1,1,38.67-38.67A38.71,38.71,0,0,1,100.91,261.39Z"/><path class="cls-4" d="M363.63,207.67H172.31a2.5,2.5,0,1,1,0-5H363.63a2.5,2.5,0,1,1,0,5Z"/><path class="cls-4" d="M257.79,230.36H172.31a2.5,2.5,0,1,1,0-5h85.48a2.5,2.5,0,1,1,0,5Z"/><path class="cls-4" d="M363.63,230.36H278.14a2.5,2.5,0,0,1,0-5h85.49a2.5,2.5,0,1,1,0,5Z"/><path class="cls-4" d="M363.63,254.12H172.31a2.5,2.5,0,0,1,0-5H363.63a2.5,2.5,0,0,1,0,5Z"/><path class="cls-5" d="M105.87,195.89c-1.28-2.28-3-3.54-5-3.54s-3.68,1.26-5,3.54L74.48,234.25c-1.27,2.27-1.42,4.46-.43,6.15s3,2.65,5.63,2.65h42.45c2.63,0,4.63-.94,5.63-2.65s.85-3.88-.42-6.15Z"/><path class="cls-3" d="M100.91,231.06a2.83,2.83,0,1,0,2.83,2.83A2.83,2.83,0,0,0,100.91,231.06Z"/><path class="cls-3" d="M100.91,227.76c1,0,2-1.27,2-2.82l1.08-18.4a2.65,2.65,0,0,0-2.66-2.83h-.94a2.65,2.65,0,0,0-2.67,2.83l1.09,18.4C99,226.49,99.87,227.76,100.91,227.76Z"/></svg>