<svg id="Capa_1" data-name="Capa 1" xmlns="http://www.w3.org/2000/svg" viewBox="0 0 450 450"><defs><style>.cls-1{fill:#e50445;opacity:0.12;}.cls-2{fill:#9bbede;fill-rule:evenodd;}.cls-3{fill:#981732;}</style></defs><title>alert-eliminar-anexo</title><circle class="cls-1" cx="225" cy="225" r="167.9"/><path class="cls-2" d="M309,185.12c17.27,0,54.31,24.32,54.31,54.31A54.31,54.31,0,0,1,309,293.73H108.28a22.59,22.59,0,0,1-22.41-22.41A22.22,22.22,0,0,1,106.57,249c-.08-1.08-.12,9.6-.12-3.26,0-18,11.86-40.27,40.62-40.66,4.72-.06-4.26-.07,0-.07,5.4-37.6,41.05-66.51,76.83-66.51s60.3,20,71.88,48.26C300,185.68,291.69,185.12,309,185.12Z"/><path class="cls-3" d="M233.23,254.94h4.49a2.25,2.25,0,0,0,2.25-2.25V212.28a2.25,2.25,0,0,0-2.25-2.25h-4.49a2.24,2.24,0,0,0-2.24,2.25v40.41A2.24,2.24,0,0,0,233.23,254.94Zm30.69-62.87H248.5l-6.36-10.61a9,9,0,0,0-7.71-4.36H215.57a9,9,0,0,0-7.7,4.36l-6.37,10.61H186.08a3,3,0,0,0-3,3v3a3,3,0,0,0,3,3h3v62.87a9,9,0,0,0,9,9H252a9,9,0,0,0,9-9h0V201.05h3a3,3,0,0,0,3-3v-3A3,3,0,0,0,263.92,192.07Zm-48.68-5.45a1.12,1.12,0,0,1,1-.54h17.58a1.14,1.14,0,0,1,1,.54l3.27,5.45H212ZM252,263.92h-53.9V201.05H252Zm-39.67-9h4.49a2.24,2.24,0,0,0,2.24-2.25V212.28a2.24,2.24,0,0,0-2.24-2.25h-4.49a2.25,2.25,0,0,0-2.25,2.25v40.41A2.25,2.25,0,0,0,212.28,254.94Z"/></svg>