<svg id="Capa_1" data-name="Capa 1" xmlns="http://www.w3.org/2000/svg" viewBox="0 0 450 450"><defs><style>.cls-1{fill:#e50445;opacity:0.12;}.cls-2{fill:#9bbede;}.cls-3{fill:#981732;}.cls-4,.cls-5{fill:#fff;}.cls-5{opacity:0.38;}</style></defs><title>alert-ticketaperturado</title><circle class="cls-1" cx="225" cy="225" r="167.9"/><rect class="cls-2" x="38.04" y="164.95" width="373.93" height="120.1" rx="8.05"/><path class="cls-3" d="M100.91,261.39a38.67,38.67,0,1,1,38.67-38.67A38.71,38.71,0,0,1,100.91,261.39Z"/><path class="cls-4" d="M97.49,237.25,83,217.25a3.8,3.8,0,0,1,.86-5.33,3.7,3.7,0,0,1,2.84-.68,3.82,3.82,0,0,1,2.5,1.55l9.2,12.72,46-46a3.81,3.81,0,0,1,5.39,5.4ZM85.17,215.7a0,0,0,0,1,0,0Z"/><path class="cls-5" d="M363.63,207.67H172.31a2.5,2.5,0,1,1,0-5H363.63a2.5,2.5,0,1,1,0,5Z"/><path class="cls-5" d="M257.79,230.36H172.31a2.5,2.5,0,1,1,0-5h85.48a2.5,2.5,0,1,1,0,5Z"/><path class="cls-5" d="M363.63,230.36H278.14a2.5,2.5,0,0,1,0-5h85.49a2.5,2.5,0,1,1,0,5Z"/><path class="cls-5" d="M363.63,254.12H172.31a2.5,2.5,0,0,1,0-5H363.63a2.5,2.5,0,0,1,0,5Z"/></svg>