<svg id="Capa_1" data-name="Capa 1" xmlns="http://www.w3.org/2000/svg" xmlns:xlink="http://www.w3.org/1999/xlink" viewBox="0 0 450 450"><defs><style>.cls-1{fill:#e50445;opacity:0.12;}.cls-2{fill:url(#linear-gradient);}.cls-3{fill:#8ea7d7;}.cls-4{fill:#c4d4ef;}.cls-5{fill:#aac5e8;}.cls-6{fill:#d5e4f6;}.cls-7{fill:#981732;}.cls-8{fill:#9bbede;}.cls-9{font-size:23.75px;fill:#fff;font-family:Lato-Semibold, Lato;font-weight:600;letter-spacing:0.02em;}</style><linearGradient id="linear-gradient" x1="198.02" y1="314.18" x2="198.02" y2="202.56" gradientUnits="userSpaceOnUse"><stop offset="0" stop-color="#d8e1f4"/><stop offset="0.01" stop-color="#dae2f5"/><stop offset="0.12" stop-color="#ebeff9"/><stop offset="0.26" stop-color="#f6f8fd"/><stop offset="0.46" stop-color="#fdfefe"/><stop offset="1" stop-color="#fff"/></linearGradient></defs><title>alert-periodo-cerrado</title><circle class="cls-1" cx="225" cy="225" r="167.9"/><path class="cls-2" d="M81.22,145.43V268.36A10.83,10.83,0,0,0,92.05,279.2H304a10.83,10.83,0,0,0,10.83-10.84V145.43Z"/><path class="cls-3" d="M304,120.94H92.05a10.83,10.83,0,0,0-10.83,10.84V153.7h233.6V131.78A10.83,10.83,0,0,0,304,120.94Z"/><rect class="cls-4" x="111.25" y="168" width="28.44" height="28.44" rx="1.08"/><rect class="cls-5" x="147.52" y="168" width="28.44" height="28.44" rx="1.08"/><rect class="cls-4" x="183.8" y="168" width="28.44" height="28.44" rx="1.08"/><rect class="cls-4" x="220.08" y="168" width="28.44" height="28.44" rx="1.08"/><rect class="cls-4" x="256.35" y="168" width="28.44" height="28.44" rx="1.08"/><rect class="cls-4" x="111.25" y="202.47" width="28.44" height="28.44" rx="1.08"/><rect class="cls-4" x="147.52" y="202.47" width="28.44" height="28.44" rx="1.08"/><rect class="cls-4" x="183.8" y="202.47" width="28.44" height="28.44" rx="1.08"/><rect class="cls-6" x="220.08" y="202.47" width="28.44" height="28.44" rx="1.08"/><rect class="cls-6" x="256.35" y="202.47" width="28.44" height="28.44" rx="1.08"/><rect class="cls-5" x="111.25" y="236.93" width="28.44" height="28.44" rx="1.08"/><rect class="cls-4" x="147.52" y="236.93" width="28.44" height="28.44" rx="1.08"/><rect class="cls-4" x="183.8" y="236.93" width="28.44" height="28.44" rx="1.08"/><rect class="cls-7" x="220.08" y="236.93" width="28.44" height="28.44" rx="1.08"/><rect class="cls-4" x="256.35" y="236.93" width="28.44" height="28.44" rx="1.08"/><rect class="cls-8" x="175.75" y="273.4" width="193.04" height="61.4" rx="5.83"/><text class="cls-9" transform="translate(195.37 313.39)">PERIODO</text><path class="cls-7" d="M342.5,304.1l7.63-7.63a2.39,2.39,0,0,0,0-3.39l-1.7-1.7a2.41,2.41,0,0,0-3.39,0L337.42,299l-7.63-7.63a2.41,2.41,0,0,0-3.39,0l-1.69,1.7a2.39,2.39,0,0,0,0,3.39l7.62,7.63-7.62,7.62a2.39,2.39,0,0,0,0,3.39l1.69,1.7a2.41,2.41,0,0,0,3.39,0l7.63-7.63,7.62,7.63a2.41,2.41,0,0,0,3.39,0l1.7-1.7a2.39,2.39,0,0,0,0-3.39Z"/></svg>