<svg id="Capa_1" data-name="Capa 1" xmlns="http://www.w3.org/2000/svg" viewBox="0 0 450 450"><defs><style>.cls-1{fill:#e50445;opacity:0.12;}.cls-2{fill:#9bbede;}.cls-3{fill:#981732;}.cls-4,.cls-5{fill:#fff;}.cls-5{opacity:0.38;}.cls-6{fill:#445ba6;}</style></defs><title>alert-ticket-enviadoBDO</title><circle class="cls-1" cx="225" cy="225" r="167.9"/><rect class="cls-2" x="38.04" y="198.82" width="373.93" height="120.1" rx="8.05"/><path class="cls-3" d="M100.91,295.26a38.67,38.67,0,1,1,38.67-38.66A38.71,38.71,0,0,1,100.91,295.26Z"/><path class="cls-4" d="M97.49,271.12,83,251.12a3.8,3.8,0,0,1,.86-5.33,3.7,3.7,0,0,1,2.84-.68,3.82,3.82,0,0,1,2.5,1.55l9.2,12.72,46-46a3.81,3.81,0,0,1,5.39,5.4ZM85.17,249.57v0Z"/><path class="cls-5" d="M363.63,241.54H172.31a2.5,2.5,0,1,1,0-5H363.63a2.5,2.5,0,1,1,0,5Z"/><path class="cls-5" d="M257.79,264.24H172.31a2.5,2.5,0,0,1,0-5h85.48a2.5,2.5,0,0,1,0,5Z"/><path class="cls-5" d="M363.63,264.24H278.14a2.5,2.5,0,0,1,0-5h85.49a2.5,2.5,0,0,1,0,5Z"/><path class="cls-5" d="M363.63,288H172.31a2.5,2.5,0,1,1,0-5H363.63a2.5,2.5,0,1,1,0,5Z"/><polygon class="cls-6" points="244.56 141.04 262.23 159.99 396.9 103.82 244.56 141.04"/><polygon class="cls-2" points="250.84 78.52 237.54 98.58 246.54 118.25 226.36 121.68 208.53 160.82 401.23 102.51 250.84 78.52"/><polygon class="cls-6" points="246.54 118.25 237.54 98.58 341.92 103.47 246.54 118.25"/></svg>