<svg id="Capa_1" data-name="Capa 1" xmlns="http://www.w3.org/2000/svg" viewBox="0 0 450 450"><defs><style>.cls-1{fill:#e50445;opacity:0.12;}.cls-2{fill:#981732;}.cls-3{fill:#fff;}</style></defs><title>alert-1</title><circle class="cls-1" cx="225" cy="225" r="167.9"/><path class="cls-2" d="M246.76,116.39c-5.61-10-13.34-15.54-21.76-15.54s-16.15,5.52-21.76,15.54l-94.1,168.15c-5.58,10-6.24,19.55-1.88,27s13.16,11.6,24.68,11.6H318.06c11.53,0,20.29-4.12,24.68-11.6s3.7-17-1.88-27Z"/><path class="cls-3" d="M225,270.58A12.41,12.41,0,1,0,237.4,283,12.41,12.41,0,0,0,225,270.58Z"/><path class="cls-3" d="M225,256.11c4.55,0,8.6-5.57,9-12.38l4.74-80.67a11.58,11.58,0,0,0-11.67-12.38h-4.14a11.58,11.58,0,0,0-11.67,12.38L216,243.73C216.4,250.54,220.45,256.11,225,256.11Z"/></svg>