<svg id="Capa_1" data-name="Capa 1" xmlns="http://www.w3.org/2000/svg" viewBox="0 0 450 450"><defs><style>.cls-1{fill:#e50445;opacity:0.12;}.cls-2{fill:#9bbede;}.cls-2,.cls-3{fill-rule:evenodd;}.cls-3{fill:#fff;}.cls-4{fill:#981732;}</style></defs><title>alert-carga-correcta</title><circle class="cls-1" cx="225" cy="225" r="167.9"/><path class="cls-2" d="M309,185.12c17.27,0,54.31,24.32,54.31,54.31A54.31,54.31,0,0,1,309,293.73H108.28a22.59,22.59,0,0,1-22.41-22.41A22.22,22.22,0,0,1,106.57,249c-.08-1.08-.12,9.6-.12-3.26,0-18,11.86-40.27,40.62-40.66,4.72-.06-4.26-.07,0-.07,5.4-37.6,41.05-66.51,76.83-66.51s60.3,20,71.88,48.26C300,185.68,291.69,185.12,309,185.12Z"/><path class="cls-3" d="M236,186.94l22,18.8a8,8,0,1,1-10.41,12.18l-9.23-7.87v47.72a8,8,0,0,1-16.06,0V210.05l-9.22,7.86a8,8,0,1,1-10.42-12.17l22-18.79a8,8,0,0,1,11.26,0Z"/><path class="cls-4" d="M340.51,300.46H271.18V231.13h69.33Zm-67.4-1.93h65.47V233.07H273.11Z"/><polygon class="cls-4" points="284.97 267.23 294.17 257.34 309.51 269.61 344.62 235.52 353.03 245.44 308.83 289.04 284.97 267.23"/></svg>