<svg id="Capa_1" data-name="Capa 1" xmlns="http://www.w3.org/2000/svg" viewBox="0 0 450 450"><defs><style>.cls-1{fill:#e50445;opacity:0.12;}.cls-2{fill:#9bbede;}.cls-3{fill:#981732;}.cls-4{fill:#fff;}</style></defs><title>alert-ticket-completos</title><circle class="cls-1" cx="225" cy="225" r="167.9"/><path class="cls-2" d="M366.93,169.15H83.07c-3.52,0-6.38-1.93-6.38-4.32V109.05c0-2.38,2.86-4.32,6.38-4.32H366.93c3.52,0,6.38,1.94,6.38,4.32v55.78C373.31,167.22,370.45,169.15,366.93,169.15Z"/><path class="cls-2" d="M366.93,258.87H83.07c-3.52,0-6.38-1.93-6.38-4.31V198.77c0-2.38,2.86-4.31,6.38-4.31H366.93c3.52,0,6.38,1.93,6.38,4.31v55.79C373.31,256.94,370.45,258.87,366.93,258.87Z"/><path class="cls-2" d="M366.93,348.59H83.07c-3.52,0-6.38-1.93-6.38-4.31V288.49c0-2.38,2.86-4.31,6.38-4.31H366.93c3.52,0,6.38,1.93,6.38,4.31v55.79C373.31,346.66,370.45,348.59,366.93,348.59Z"/><path class="cls-3" d="M147.22,137a19.8,19.8,0,1,1-19.77-19.82A19.79,19.79,0,0,1,147.22,137Z"/><path class="cls-3" d="M147.1,226.69a19.79,19.79,0,1,1-19.76-19.82A19.79,19.79,0,0,1,147.1,226.69Z"/><path class="cls-3" d="M147,313.77A19.8,19.8,0,1,1,127.23,294,19.8,19.8,0,0,1,147,313.77Z"/><path class="cls-4" d="M347.8,129.94h0l-189.36-.23a2.39,2.39,0,0,1,0-4.77h0l189.36.23a2.39,2.39,0,0,1,0,4.77Z"/><path class="cls-4" d="M253.1,150h0l-94.68-.12a2.39,2.39,0,1,1,0-4.77h0l94.69.11a2.39,2.39,0,0,1,0,4.78Z"/><path class="cls-4" d="M347.69,222.61h0l-189.37-.24a2.39,2.39,0,1,1,0-4.77h0l189.37.24a2.39,2.39,0,1,1,0,4.77Z"/><path class="cls-4" d="M253,242.63h0l-94.68-.11a2.39,2.39,0,0,1,0-4.77h0l94.68.11a2.39,2.39,0,0,1,0,4.77Z"/><path class="cls-4" d="M347.59,307.22h0L158.22,307a2.39,2.39,0,0,1,0-4.77h0l189.36.24a2.39,2.39,0,0,1,0,4.77Z"/><path class="cls-4" d="M252.88,327.24h0l-94.69-.11a2.39,2.39,0,0,1,0-4.77h0l94.69.11a2.39,2.39,0,0,1,0,4.77Z"/><path class="cls-3" d="M126.92,246.35a19.9,19.9,0,1,1,19.89-19.9A19.93,19.93,0,0,1,126.92,246.35Z"/><path class="cls-4" d="M125.16,233.92l-7.44-10.29a2,2,0,1,1,3.18-2.29l4.74,6.54,23.66-23.65a2,2,0,0,1,2.77,2.77Zm-6.34-11.08Z"/><path class="cls-3" d="M126.92,156.73a19.9,19.9,0,1,1,19.89-19.89A19.92,19.92,0,0,1,126.92,156.73Z"/><path class="cls-4" d="M125.16,144.31,117.72,134a2,2,0,0,1-.35-1.46,2,2,0,0,1,2.25-1.63,1.88,1.88,0,0,1,1.28.8l4.74,6.54,23.66-23.66a2,2,0,0,1,2.77,2.78Zm-6.34-11.09h0Z"/><path class="cls-3" d="M126.92,333.54a19.9,19.9,0,1,1,19.89-19.9A19.93,19.93,0,0,1,126.92,333.54Z"/><path class="cls-4" d="M125.16,321.11l-7.44-10.28a2,2,0,0,1-.35-1.47,2,2,0,0,1,2.25-1.63,2,2,0,0,1,1.28.8l4.74,6.54,23.66-23.65a2,2,0,0,1,2.77,2.77ZM118.82,310h0Z"/></svg>