<?xml version="1.0" encoding="utf-8"?>
<!-- Generator: Adobe Illustrator 23.0.0, SVG Export Plug-In . SVG Version: 6.00 Build 0)  -->
<svg version="1.1" xmlns="http://www.w3.org/2000/svg" xmlns:xlink="http://www.w3.org/1999/xlink" x="0px" y="0px"
	 viewBox="0 0 423.9 394.2" style="enable-background:new 0 0 423.9 394.2;" xml:space="preserve">
<style type="text/css">
	.st0{display:none;}
	.st1{display:inline;fill:#FFFFFF;}
	.st2{opacity:0.35;}
	.st3{fill:#CEEAFC;}
	.st4{fill:none;stroke:#B2D9FD;stroke-width:0.9743;stroke-miterlimit:10;}
	.st5{fill:none;stroke:#B2D9FD;stroke-width:0.9743;stroke-miterlimit:10;stroke-dasharray:2.4642,2.4642;}
	.st6{fill:none;stroke:#B2D9FD;stroke-width:0.9743;stroke-miterlimit:10;stroke-dasharray:2.4357;}
	.st7{fill:#E17C8D;}
	.st8{fill:#C9515B;}
	.st9{opacity:0.45;fill:#983F46;}
	.st10{fill:#5C87C7;}
	.st11{opacity:0.45;fill:#232777;}
	.st12{fill:#FFFFFF;}
	.st13{fill:#AFDDFD;}
	.st14{opacity:0.45;fill:#5C87C7;}
	.st15{fill:#232777;}
	.st16{fill:#EDBC9C;}
	.st17{fill:#DD9F80;}
	.st18{fill-rule:evenodd;clip-rule:evenodd;fill:#81C4EF;}
	.st19{fill-rule:evenodd;clip-rule:evenodd;fill:#C9515B;}
</style>
<g id="BACKGROUND" class="st0">
	<rect x="-32.3" y="-43.1" class="st1" width="500" height="500"/>
</g>
<g id="OBJECTS">
	<g>
		<g class="st2">
			<path class="st3" d="M205.6,36.4c-20.3,5-21.1-10.9-47.2-11.3c-10.7-0.1-21.6,5.1-26.6,17.6c-2.5,6.1-4.1,12.3-8,17.7
				C114.9,72.8,97.9,72.6,83.5,76c-31.7,7.5-62.3,53.1-61.4,82.1c0.6,21,6.7,23,26.8,42.1c13.7,13.1,30.6,21.6,44.8,33.7
				c15,12.9,22.2,28.5,27,46.1c4.6,16.6,10,34.7,23.6,47.5c12.8,12,26.3,10.2,42,5.1c17.4-5.7,29.2,6.6,36,19.4
				c5.7,10.8,10.5,24.8,48.6,37.2c15,4.9,125.4,26.4,144.1-80.8c26.6-153-67.2-158.4-71.3-212.5c-5.8-76.3-50.7-79.4-77-90
				C210.1-16.8,219.8,32.9,205.6,36.4z"/>
		</g>
		<g>
			<g>
				<path class="st4" d="M103.8,180.4c-0.1,0.4-0.2,0.8-0.3,1.2"/>
				<path class="st5" d="M102.7,183.9c-3.7,8.8-13.7,17.4-28.5,13.7c-10.7-2.7-13.4-12.9-19.1-19.6c-4.2-4.9-10.2-9-12.1-15.9
					c-4.3-15.9,2.3-32.8,13.7-38c6.3-2.8,21.7-1.2,29.6,1.7"/>
				<path class="st4" d="M87.5,126.3c0.4,0.2,0.8,0.3,1.1,0.5"/>
			</g>
		</g>
		<path class="st6" d="M218.6,130.7c-8.8-0.1-20.4-5.3-23.6-14.7c-3.6-10.7,4.1-16.2,5.8-20.2c4.1-9.9,4.1-15.3,2.4-25.6
			c-1.1-6.7,5.5-16.5,14.9-17.9c17.1-2.5,34.6,23.9,48.9,27.3c11.6,2.7,17.3,0.5,27.7,8.6"/>
		<path class="st7" d="M339.6,103.3c0,0.9-0.8,1.7-1.7,1.7c-0.9,0-1.7-0.8-1.7-1.7c0-0.9,0.8-1.7,1.7-1.7
			C338.8,101.6,339.6,102.3,339.6,103.3z"/>
		<path class="st7" d="M149.9,68.3c0,0.9-0.8,1.7-1.7,1.7c-0.9,0-1.7-0.8-1.7-1.7c0-0.9,0.8-1.7,1.7-1.7
			C149.2,66.6,149.9,67.4,149.9,68.3z"/>
		<path class="st7" d="M330.6,350.5c0,0.9-0.8,1.7-1.7,1.7c-0.9,0-1.7-0.8-1.7-1.7c0-0.9,0.8-1.7,1.7-1.7
			C329.8,348.8,330.6,349.5,330.6,350.5z"/>
		<path class="st7" d="M61.9,337c0,0.9-0.8,1.7-1.7,1.7c-0.9,0-1.7-0.8-1.7-1.7c0-0.9,0.8-1.7,1.7-1.7
			C61.1,335.3,61.9,336.1,61.9,337z"/>
		<g>
			<g>
				<path class="st7" d="M238.2,115.2c-0.3,0-0.5-0.2-0.5-0.5v-3.8c0-0.3,0.2-0.5,0.5-0.5c0.3,0,0.5,0.2,0.5,0.5v3.8
					C238.8,115,238.5,115.2,238.2,115.2z"/>
			</g>
			<g>
				<path class="st7" d="M240.1,113.3h-3.8c-0.3,0-0.5-0.2-0.5-0.5c0-0.3,0.2-0.5,0.5-0.5h3.8c0.3,0,0.5,0.2,0.5,0.5
					C240.7,113.1,240.4,113.3,240.1,113.3z"/>
			</g>
		</g>
		<g>
			<g>
				<path class="st7" d="M32.2,177.8c-0.3,0-0.5-0.2-0.5-0.5v-3.8c0-0.3,0.2-0.5,0.5-0.5c0.3,0,0.5,0.2,0.5,0.5v3.8
					C32.8,177.5,32.5,177.8,32.2,177.8z"/>
			</g>
			<g>
				<path class="st7" d="M34.1,175.9h-3.8c-0.3,0-0.5-0.2-0.5-0.5c0-0.3,0.2-0.5,0.5-0.5h3.8c0.3,0,0.5,0.2,0.5,0.5
					C34.7,175.6,34.4,175.9,34.1,175.9z"/>
			</g>
		</g>
		<g>
			<g>
				<path class="st7" d="M399,257.9c-0.3,0-0.5-0.2-0.5-0.5v-3.8c0-0.3,0.2-0.5,0.5-0.5c0.3,0,0.5,0.2,0.5,0.5v3.8
					C399.6,257.6,399.3,257.9,399,257.9z"/>
			</g>
			<g>
				<path class="st7" d="M400.9,256h-3.8c-0.3,0-0.5-0.2-0.5-0.5c0-0.3,0.2-0.5,0.5-0.5h3.8c0.3,0,0.5,0.2,0.5,0.5
					C401.5,255.7,401.2,256,400.9,256z"/>
			</g>
		</g>
		<g>
			<g>
				<path class="st7" d="M272.3,39.3c-0.3,0-0.5-0.2-0.5-0.5v-3.8c0-0.3,0.2-0.5,0.5-0.5c0.3,0,0.5,0.2,0.5,0.5v3.8
					C272.8,39,272.6,39.3,272.3,39.3z"/>
			</g>
			<g>
				<path class="st7" d="M274.2,37.4h-3.8c-0.3,0-0.5-0.2-0.5-0.5c0-0.3,0.2-0.5,0.5-0.5h3.8c0.3,0,0.5,0.2,0.5,0.5
					C274.7,37.1,274.5,37.4,274.2,37.4z"/>
			</g>
		</g>
		<path class="st6" d="M374.8,279.5c18.8-1.1-3.2-55,23.7-56.9"/>
		<g>
			<rect x="138.3" y="86.3" class="st8" width="31.4" height="31.4"/>
			<rect x="138.3" y="86.3" class="st9" width="31.4" height="5.1"/>
		</g>
		<g>
			<rect x="72.7" y="75.3" class="st10" width="53.8" height="64.8"/>
			<rect x="72.7" y="75.3" class="st11" width="53.8" height="11"/>
		</g>
		
			<rect x="97.4" y="66.4" transform="matrix(0.7071 0.7071 -0.7071 0.7071 82.6084 -49.8579)" class="st12" width="8.1" height="16.7"/>
		
			<rect x="150" y="81.1" transform="matrix(0.9961 -8.814447e-02 8.814447e-02 0.9961 -6.9825 13.7628)" class="st12" width="4.7" height="9.6"/>
		<g>
			
				<rect x="182.7" y="69.7" transform="matrix(0.8716 -0.4902 0.4902 0.8716 -16.4083 108.1969)" class="st13" width="31.4" height="31.4"/>
			
				<rect x="176.2" y="71.4" transform="matrix(0.8716 -0.4902 0.4902 0.8716 -11.6247 103.5725)" class="st14" width="31.4" height="5.1"/>
		</g>
		
			<rect x="186.8" y="67.4" transform="matrix(0.9927 0.1206 -0.1206 0.9927 10.092 -22.2857)" class="st12" width="4.7" height="9.6"/>
		<g>
			<rect x="254.6" y="59.8" class="st10" width="40.2" height="40.2"/>
			<polygon class="st3" points="294.7,100 284.1,100 267.8,79.9 294.7,59.8 			"/>
			
				<rect x="283.9" y="62.7" transform="matrix(0.7071 -0.7071 0.7071 0.7071 30.516 239.1898)" class="st15" width="40.2" height="40.2"/>
			
				<ellipse transform="matrix(0.7071 -0.7071 0.7071 0.7071 44.017 225.9215)" class="st8" cx="294.7" cy="59.8" rx="8.5" ry="8.5"/>
		</g>
		<g>
			<path class="st10" d="M303.6,137.3c0,0-8,5.5,0.4,12.3c8.4,6.8,11.1,16.1,12.5,24.2c1.9,10.4,7.6,30.5,32.9,22.5
				c0,0,10.9-6.9,0.4-23.7c-10.5-16.8-13.5-5.4-23.2-21.9C316.9,134.1,307.1,136.9,303.6,137.3z"/>
			<path class="st15" d="M362.6,233.1C362.6,233.1,362.6,233.1,362.6,233.1c-0.4-0.1-0.6-0.3-0.5-0.6c0.1-0.4,5.1-38.2-52.8-87.7
				c-0.2-0.2-0.3-0.5-0.1-0.8c0.2-0.2,0.5-0.3,0.8-0.1c16.8,14.4,38.9,37,48.7,63.2c5.9,15.7,4.5,25.1,4.4,25.5
				C363.1,232.9,362.9,233.1,362.6,233.1z"/>
			<path class="st10" d="M415.1,170c0,0,4.5,4.5-1.7,7.9c-6.2,3.5-9,9.2-10.9,14.2c-2.4,6.5-8.4,18.9-23.8,10.8
				c0,0-6.3-5.7,2.5-15.4c8.7-9.7,9.4-1.9,17.5-11.5C406.8,166.4,412.8,169.3,415.1,170z"/>
			<path class="st15" d="M363.6,235.1c-0.3,0-0.5-0.2-0.6-0.5c0-0.3-3.8-27.2,37.3-53.6c0.3-0.2,0.7-0.1,0.8,0.2
				c0.2,0.3,0.1,0.7-0.2,0.8c-40.4,26-36.8,52.1-36.7,52.4C364.3,234.8,364,235.1,363.6,235.1C363.7,235.1,363.6,235.1,363.6,235.1z
				"/>
			<path class="st10" d="M368.9,137c0,0-6.4-0.2-4.5,6.7c1.8,6.9-0.4,12.8-2.7,17.7c-3,6.2-7.8,19.1,8.7,24.6c0,0,8.5,0.6,9.4-12.4
				s-5.1-8.1-3.8-20.6C377.2,140.4,370.9,138.1,368.9,137z"/>
			<path class="st15" d="M362.6,232.1c-0.1,0-0.1,0-0.2,0c-0.3-0.1-0.5-0.4-0.4-0.7c0.1-0.3,9.2-33.9,6.8-88.2
				c0-0.3,0.2-0.6,0.6-0.6c0.4,0,0.6,0.2,0.6,0.6c2.4,54.6-6.8,88.2-6.9,88.6C363.1,231.9,362.8,232.1,362.6,232.1z"/>
			<g>
				<path class="st13" d="M363.5,240.4l0.5-3.6c0.1-1,0.3-1.9,0.6-2.8l1.6-3.7h-3.6H359l1.6,3.7c0.3,0.9,0.5,1.8,0.6,2.8l0.5,3.6
					c-16.5,13.3-10.1,49.5-10.1,49.5c11.3,6.5,22,0,22,0S380,253.6,363.5,240.4z"/>
			</g>
		</g>
		<g>
			<g>
				<g>
					<rect x="86.8" y="321.3" class="st15" width="215.3" height="8.8"/>
					<g>
						<path class="st13" d="M102.8,321.3h-10l0,0c0-1.1,0.9-2,2-2h6C101.9,319.3,102.8,320.2,102.8,321.3L102.8,321.3z"/>
						<path class="st13" d="M112.8,321.3h-10l0,0c0-1.1,0.9-2,2-2h6C111.9,319.3,112.8,320.2,112.8,321.3L112.8,321.3z"/>
						<path class="st13" d="M122.9,321.3h-10l0,0c0-1.1,0.9-2,2-2h6C122,319.3,122.9,320.2,122.9,321.3L122.9,321.3z"/>
						<path class="st13" d="M132.9,321.3h-10l0,0c0-1.1,0.9-2,2-2h6C132,319.3,132.9,320.2,132.9,321.3L132.9,321.3z"/>
						<path class="st13" d="M142.9,321.3h-10l0,0c0-1.1,0.9-2,2-2h6C142,319.3,142.9,320.2,142.9,321.3L142.9,321.3z"/>
						<path class="st13" d="M152.9,321.3h-10l0,0c0-1.1,0.9-2,2-2h6C152,319.3,152.9,320.2,152.9,321.3L152.9,321.3z"/>
						<path class="st13" d="M162.9,321.3h-10l0,0c0-1.1,0.9-2,2-2h6C162,319.3,162.9,320.2,162.9,321.3L162.9,321.3z"/>
						<path class="st13" d="M172.9,321.3h-10l0,0c0-1.1,0.9-2,2-2h6C172,319.3,172.9,320.2,172.9,321.3L172.9,321.3z"/>
						<path class="st13" d="M182.9,321.3h-10l0,0c0-1.1,0.9-2,2-2h6C182,319.3,182.9,320.2,182.9,321.3L182.9,321.3z"/>
						<path class="st13" d="M192.9,321.3h-10l0,0c0-1.1,0.9-2,2-2h6C192,319.3,192.9,320.2,192.9,321.3L192.9,321.3z"/>
						<path class="st13" d="M203,321.3h-10l0,0c0-1.1,0.9-2,2-2h6C202.1,319.3,203,320.2,203,321.3L203,321.3z"/>
						<path class="st13" d="M213,321.3h-10l0,0c0-1.1,0.9-2,2-2h6C212.1,319.3,213,320.2,213,321.3L213,321.3z"/>
						<path class="st13" d="M223,321.3h-10l0,0c0-1.1,0.9-2,2-2h6C222.1,319.3,223,320.2,223,321.3L223,321.3z"/>
						<path class="st13" d="M233,321.3h-10l0,0c0-1.1,0.9-2,2-2h6C232.1,319.3,233,320.2,233,321.3L233,321.3z"/>
						<path class="st13" d="M250.7,321.3h-10l0,0c0-1.1,0.9-2,2-2h6C249.8,319.3,250.7,320.2,250.7,321.3L250.7,321.3z"/>
						<path class="st13" d="M260.7,321.3h-10l0,0c0-1.1,0.9-2,2-2h6C259.8,319.3,260.7,320.2,260.7,321.3L260.7,321.3z"/>
						<path class="st13" d="M270.8,321.3h-10l0,0c0-1.1,0.9-2,2-2h6C269.9,319.3,270.8,320.2,270.8,321.3L270.8,321.3z"/>
						<path class="st13" d="M288,321.3h-10l0,0c0-1.1,0.9-2,2-2h6C287.1,319.3,288,320.2,288,321.3L288,321.3z"/>
						<path class="st13" d="M298.1,321.3h-10l0,0c0-1.1,0.9-2,2-2h6C297.2,319.3,298.1,320.2,298.1,321.3L298.1,321.3z"/>
					</g>
				</g>
			</g>
		</g>
		<g>
			<rect x="191.3" y="248.6" class="st13" width="58.6" height="48.6"/>
			<path class="st12" d="M262.4,297.4h-83.6v-3c0-1.4,1.1-2.4,2.4-2.4H260c1.4,0,2.4,1.1,2.4,2.4V297.4z"/>
			<path class="st12" d="M107.4,273h226.4c2.3,0,4.1-1.8,4.1-4.1V131c0-2.3-1.8-4.1-4.1-4.1H107.4c-2.3,0-4.1,1.8-4.1,4.1v137.9
				C103.3,271.1,105.1,273,107.4,273z"/>
			<path class="st15" d="M334.6,126.9H106.6c-1.8,0-3.3,1.5-3.3,3.3v118.5h234.6V130.1C337.9,128.3,336.4,126.9,334.6,126.9z"/>
			<rect x="112.3" y="135.9" class="st12" width="216.6" height="103.8"/>
			<rect x="121.3" y="144.9" class="st3" width="198.6" height="85.8"/>
			<path class="st13" d="M225.5,260.4c0,2.7-2.2,4.9-4.9,4.9c-2.7,0-4.9-2.2-4.9-4.9s2.2-4.9,4.9-4.9
				C223.3,255.4,225.5,257.7,225.5,260.4z"/>
			<rect x="311.1" y="144.8" class="st13" width="8.8" height="85.8"/>
			
				<rect x="121.3" y="144.8" transform="matrix(-1 -1.224647e-16 1.224647e-16 -1 251.3798 375.5299)" class="st13" width="8.8" height="85.8"/>
		</g>
		<g>
			<path class="st12" d="M208.6,190.2c0-8.9,3.5-17,9.3-23c-6-6.3-14.5-10.2-23.9-10.2c-18.3,0-33.2,14.8-33.2,33.2
				c0,15.5,10.7,28.6,25.1,32.2c2.6,0.6,5.3,1,8.1,1c9.4,0,17.8-3.9,23.9-10.2c-3.8-3.9-6.6-8.7-8.1-14.1
				C209,196.3,208.6,193.3,208.6,190.2z"/>
			<path class="st10" d="M241.7,157c-9.4,0-17.8,3.9-23.9,10.2c5.7,6,9.3,14.1,9.3,23c0,3.1-0.4,6.1-1.2,8.9
				c-1.5,5.4-4.3,10.2-8.1,14.1c6,6.3,14.5,10.2,23.9,10.2c2.8,0,5.5-0.3,8.1-1c14.4-3.6,25.1-16.6,25.1-32.2
				C274.9,171.9,260.1,157,241.7,157z"/>
			<path class="st13" d="M217.9,167.2c-5.7,6-9.3,14.1-9.3,23c0,3.1,0.4,6.1,1.2,8.9c1.5,5.4,4.3,10.2,8.1,14.1
				c3.8-3.9,6.6-8.7,8.1-14.1c0.8-2.8,1.2-5.8,1.2-8.9C227.1,181.3,223.6,173.2,217.9,167.2z"/>
		</g>
		<g>
			<path class="st15" d="M228.6,157.9v-2.9h-2.9v0.8h-30.4v-0.8h-2.9v0.8h-30.4v-0.8h-2.9v2.9h2.9v-0.8h22.7
				c-13.8,3.9-24.1,16.3-24.7,31.2h-0.8v2.9h2.9v-2.9h-0.8c0.7-16.9,14.3-30.5,31.2-31.2v0.8h2.9v-0.8c16.9,0.7,30.5,14.3,31.2,31.2
				h-0.8v2.9h2.9v-2.9h-0.8c-0.6-14.9-10.9-27.3-24.7-31.2h22.7v0.8H228.6z"/>
		</g>
		<circle class="st3" cx="181" cy="178.3" r="9"/>
		<g>
			<path class="st13" d="M319.6,292.1c-1.9-0.8-3.8-1.7-5.6-2.5c-0.9-0.4-1.9-0.8-2.8-1.2c-1-0.4-2.1-0.8-3.1-1.3
				c-0.6-0.3-1.3-0.3-2,0c-0.2,0.1-0.4,0.2-0.6,0.3c-0.4,0.3-0.6,0.6-0.8,1c-0.2,0.4-0.4,0.9-0.5,1.4c-0.1,0.5-0.2,1-0.3,1.5
				c-0.2,1-0.3,2.1-0.4,3.1c-0.1,1.1-0.1,2.1-0.1,3.2c0,1.1,0.3,2.3,1.2,2.9c0.7,0.4,1.4,0.7,2.2,0.6c0.3-0.1,0.5-0.1,0.8-0.2
				c0.5-0.2,0.9-0.5,1.3-1c0,0,0,0,0,0c0.3-0.4,0.5-0.9,0.6-1.4c0.1-0.4,0-0.7,0-1.1c0-0.1,0-0.2,0-0.3c0-0.5,0-0.9,0-1.3
				c0-1.1,0-2.1,0-3.2c0-0.2,0-0.4,0-0.6c0.6,0.1,1.3,0.2,1.9,0.4c2.4,0.7,4.6,1.8,6.9,2.7c0.8,0.3,1.7,0,2.1-0.8
				c0.2-0.4,0.2-0.8,0-1.2C320.3,292.6,320,292.3,319.6,292.1L319.6,292.1L319.6,292.1z"/>
			<path class="st12" d="M325.8,289.9c-0.1-0.3-0.4-0.6-0.7-0.9c-0.4-0.3-0.9-0.5-1.4-0.4c-0.8,0.1-1.6,0.2-2.4,0.2
				c-0.9,0.1-1.9,0.2-2.8,0.3c-1.8,0.2-3.4,0.2-4.9,0.2c-1.3,0-2.3-0.1-3.3-0.3c-0.6-0.1-1.2,0.1-1.7,0.4c-0.4,0.3-0.8,0.9-0.9,1.4
				c0,0.7,0,1.3-0.1,2l0,0.7c-0.1,2.5-0.2,5-0.8,7.4c-0.1,0.4,0,0.8,0.1,1.2c0.1,0.2,0.2,0.4,0.3,0.6c0.5,0.7,1.3,1,2.2,1
				c0.6,0,1.3-0.1,2.1-0.3c-0.1,0.5,0,1,0.1,1.4c0.1,0.4,0.2,0.7,0.3,1c0.1,0.3,0.3,0.6,0.5,0.9c0.6,0.9,1.5,1.5,2.2,1.8
				c1.6,0.7,3.8,0.6,5.5-0.3c1.1-0.6,1.9-1.3,2.6-2.1c0.8-1.1,1.2-2.3,1.5-3.3c0-0.2,0-0.4,0-0.6c0.4-1.4,0.8-3.1,1.1-4.9
				c0.4-2.3,0.6-4.5,0.6-7C325.9,290.2,325.9,290.1,325.8,289.9L325.8,289.9L325.8,289.9z"/>
			<path class="st3" d="M317.9,305.9c-0.4-0.5-1.1-0.6-1.6-0.2c-0.6,0.4-1.1,0.8-1.7,1.2c-0.6,0.3-1.3,0.6-1.9,0.8
				c-0.4,0.1-0.8,0.1-1.3,0.2c-0.3,0-0.7-0.1-1-0.1c-0.3-0.1-0.6-0.2-0.8-0.4c-0.5-0.3-1-0.7-1.4-1.1c-0.7-0.8-1.3-1.6-1.9-2.5
				c-1-1.7-1.7-3.6-2.3-5.4c0.1,0,0.1,0,0.2-0.1c0.7-0.2,1.3-0.5,2-0.7c1.4-0.5,2.8-1.1,4.1-1.7c0.4-0.2,0.8-0.5,0.9-0.9
				c0.2-0.4,0.2-0.9,0-1.3c-0.4-0.9-1.4-1.3-2.2-1c-1.3,0.5-2.6,1-3.9,1.4c-1.3,0.5-2.6,0.9-3.9,1.4c-0.9,0.3-1.4,1.4-1,2.3
				c0.9,2,1.7,3.9,2.7,5.8c1,1.8,2.1,3.6,3.6,5c1.4,1.2,3.2,1.8,5.1,1.8c1,0,1.9-0.3,2.8-0.7c1.2-0.5,2.3-1.3,3.3-2.1
				c0.4-0.3,0.5-0.8,0.4-1.3C318,306,318,306,317.9,305.9L317.9,305.9L317.9,305.9z M306.3,303.6c0,0-0.1-0.1-0.1-0.1
				C306.3,303.5,306.3,303.5,306.3,303.6L306.3,303.6L306.3,303.6z"/>
			<path class="st3" d="M311.5,298.7c-0.3-0.7-0.6-1.3-1-2c-0.3-0.5-0.8-1-1.3-1.4c-0.3-0.2-0.6-0.4-0.9-0.5c-0.7-0.2-1-0.3-1.7-0.2
				c-0.4,0-0.8,0.2-1.1,0.3c-0.4,0.1-0.7,0.3-1,0.6c-1.2,1-1.6,2.5-1.5,4c0.1,0.6,0.3,1.3,0.5,1.9c0.2,0.5,0.4,1,0.6,1.5
				c0.5,1.1,1.2,2.1,1.8,3.2c0.2,0.3,0.5,0.7,0.7,1c0.2,0.3,0.5,0.7,0.9,0.9c0.3,0.2,0.6,0.4,1,0.4c0.4,0.1,0.9,0,1.3-0.2
				c0.4,0.5,0.9,0.8,1.6,0.9c0.7,0.1,1.4-0.1,1.9-0.5c1-0.8,1.4-2.4,0.6-3.5c-0.4-0.8-0.7-1.7-1-2.6c-0.4-1.1-0.7-2.2-1.2-3.3
				C311.6,299,311.5,298.8,311.5,298.7L311.5,298.7L311.5,298.7z"/>
			<path class="st3" d="M319.7,286c-0.5-0.6-1.1-1.1-1.8-1.4c-0.7-0.3-1.6-0.4-2.3-0.2c-0.4,0.1-0.8,0.2-1.2,0.4
				c-0.5,0.2-0.9,0.5-1.3,0.7c-0.8,0.5-1.5,1.2-2.1,1.8c-0.7,0.7-1.3,1.4-1.8,2.1c-0.6,0.9-1.2,1.8-1.6,2.8
				c-0.3,0.6-0.1,1.4,0.5,1.8c0.7,0.5,1.7,0.4,2.2-0.3c1.2-1.4,2.2-3,3.5-4.3c0.6-0.6,1.2-1.1,1.9-1.5c0.3-0.1,0.6-0.3,0.9-0.4
				c0.2,0,0.4-0.1,0.6-0.1c0.1,0,0.1,0,0.2,0c0.1,0,0.1,0.1,0.2,0.1c0.1,0.1,0.2,0.2,0.3,0.3c0.2,0.2,0.4,0.5,0.5,0.7
				c0.3,0.6,0.5,1.3,0.7,1.9c0.1,0.5,0.2,1.1,0.3,1.6c0.1,0.7,0.7,1.1,1.3,1.1c0.6-0.1,1.2-0.7,1.1-1.3c-0.2-1.2-0.4-2.4-0.8-3.6
				c-0.1-0.2-0.1-0.4-0.2-0.6C320.5,287.2,320.1,286.5,319.7,286L319.7,286L319.7,286z"/>
			<path class="st3" d="M318.1,288.2c-0.5-0.2-1-0.4-1.5-0.6c-0.3-0.1-0.6-0.2-0.9-0.2c-0.2,0-0.4,0.1-0.6,0.1
				c-0.4,0.1-0.7,0.2-1.1,0.4c-0.1,0-0.2,0.1-0.3,0.2c0,0,0,0,0,0c0,0,0,0,0,0c-0.1,0.1-0.2,0.2-0.3,0.3c-0.1,0.1-0.1,0.2-0.2,0.3
				c-0.4,0.3-0.7,0.7-1.1,1c-0.8,0.8-1.5,1.6-2.2,2.4c0,0-0.1,0.1-0.1,0.1c-0.3,0.3-0.5,0.5-0.5,0.9c-0.1,0.4,0,0.8,0.3,1.1
				c0.5,0.6,1.4,0.7,2,0.3c1.5-1.2,2.8-2.7,4.5-3.7c0.3-0.1,0.5-0.3,0.8-0.4c0.1,0,0.2,0.1,0.3,0.1c0.6,0.3,1.4,0,1.7-0.7
				c0.1-0.3,0.1-0.7,0-1C318.7,288.6,318.4,288.3,318.1,288.2L318.1,288.2L318.1,288.2z M309.9,292.2c-0.1,0.1-0.1,0.1-0.2,0.2
				C309.8,292.3,309.8,292.3,309.9,292.2L309.9,292.2L309.9,292.2z"/>
		</g>
		<g>
			<g>
				<g>
					<g>
						<path class="st13" d="M77.5,233.5l-3.6,1l-1.1-5.1c-0.2-0.8,0.3-1.6,1.1-1.8l0,0c0.8-0.2,1.6,0.2,1.9,1L77.5,233.5z"/>
					</g>
					<path class="st15" d="M93.4,300.3c0.5,1.8,1.1,3.2,1.4,3.1c0.3-0.1,0.1-1.6-0.4-3.4L93.4,300.3z"/>
					<path class="st12" d="M95.6,292.5c-1.6-3.6-2.9-7.3-3.9-11.1l-14.1-51l-5.4,1.5l14.1,51c1,3.8,1.8,7.6,2.3,11.5l0.1,1.2
						c0,0.2,0.1,0.4,0.2,0.5l4.5,5.7c0.3,0.3,0.7,0.5,1.1,0.3l0,0c0.4-0.1,0.7-0.4,0.7-0.8l0.9-7.2c0-0.2,0-0.4-0.1-0.5L95.6,292.5z
						"/>
					
						<rect x="76" y="230.7" transform="matrix(0.9639 -0.2663 0.2663 0.9639 -62.4911 29.8433)" class="st12" width="5.6" height="29.4"/>
					<g>
						<polygon class="st3" points="90,297.4 96,295.8 96.1,294.7 89.3,296.6 						"/>
					</g>
					<g>
						
							<rect x="87.1" y="272.5" transform="matrix(0.9639 -0.2663 0.2663 0.9639 -71.104 33.5308)" class="st13" width="2" height="12.8"/>
					</g>
					
						<rect x="87.9" y="278.7" transform="matrix(0.9639 -0.2663 0.2663 0.9639 -71.8839 33.8645)" class="st3" width="2" height="6.5"/>
					<g>
						
							<rect x="79.9" y="259.1" transform="matrix(0.9639 -0.2663 0.2663 0.9639 -66.1301 31.4003)" class="st13" width="5.6" height="1"/>
					</g>
					<g>
						
							<rect x="72.6" y="232.4" transform="matrix(0.9639 -0.2663 0.2663 0.9639 -59.3058 28.4761)" class="st13" width="5.6" height="1"/>
					</g>
				</g>
			</g>
			<g>
				<g>
					<polygon class="st8" points="90.7,231.6 95.3,294.3 98,291.7 93.6,231.4 					"/>
					<polygon class="st9" points="90.7,231.6 95.3,294.3 98,291.7 93.6,231.4 					"/>
					<polygon class="st8" points="87.8,231.8 92.2,292.1 95.3,293.9 90.7,231.6 					"/>
					<path class="st12" d="M96.4,292.6c0,0-0.6-0.8-1.3-0.7c-0.8,0.1-1.2,0.9-1.2,0.9c-0.9-1-1.8-0.7-1.8-0.7l2.2,5.9l2.3-0.2
						l1.3-6.2C98,291.7,97.1,291.6,96.4,292.6z"/>
					<path class="st15" d="M95.5,297.9c-0.4,0-0.8,0.1-1.1,0.2l1.1,3c0,0.1,0.1,0.2,0.2,0.2l0,0c0.1,0,0.2-0.1,0.2-0.2l0.7-3.1
						C96.3,297.8,95.9,297.8,95.5,297.9z"/>
					
						<rect x="87.7" y="229.6" transform="matrix(0.9973 -7.305706e-02 7.305706e-02 0.9973 -16.6042 7.236)" class="st12" width="5.9" height="2"/>
					<path class="st13" d="M91.6,224.6l-2.7,0.2c-0.9,0.1-1.5,0.8-1.4,1.7l0.2,3.3l5.9-0.4l-0.2-3.3
						C93.2,225.2,92.4,224.6,91.6,224.6z"/>
				</g>
			</g>
			<g>
				<g>
					<polygon class="st8" points="100.5,229.9 101.8,292.7 104.7,290.3 103.4,229.8 					"/>
					<polygon class="st9" points="100.5,229.9 101.8,292.7 104.7,290.3 103.4,229.8 					"/>
					<polygon class="st8" points="97.6,229.9 98.9,290.4 101.8,292.3 100.5,229.9 					"/>
					<path class="st12" d="M103.1,291.1c0,0-0.5-0.8-1.3-0.8c-0.8,0-1.2,0.9-1.2,0.9c-0.8-1-1.7-0.8-1.7-0.8l1.9,6l2.3,0l1.7-6.1
						C104.7,290.3,103.8,290.1,103.1,291.1z"/>
					<path class="st15" d="M101.9,296.3c-0.4,0-0.8,0.1-1.1,0.1l1,3.1c0,0.1,0.1,0.2,0.2,0.2l0,0c0.1,0,0.2-0.1,0.2-0.2l0.8-3.1
						C102.7,296.3,102.3,296.3,101.9,296.3z"/>
					
						<rect x="97.5" y="227.8" transform="matrix(0.9998 -2.138144e-02 2.138144e-02 0.9998 -4.8701 2.2007)" class="st12" width="5.9" height="2"/>
					<path class="st13" d="M101.7,223L99,223c-0.9,0-1.6,0.7-1.5,1.6l0.1,3.3l5.9-0.1l-0.1-3.3C103.3,223.6,102.6,222.9,101.7,223z"
						/>
				</g>
			</g>
			<g>
				<g>
					<g>
						<path class="st13" d="M108.9,234.5l-3.5-1.2l2-4.8c0.3-0.8,1.2-1.1,1.9-0.9l0,0c0.8,0.3,1.2,1.1,1,1.9L108.9,234.5z"/>
					</g>
					<path class="st15" d="M84,298.5c-0.6,1.8-0.9,3.3-0.6,3.4c0.3,0.1,1-1.2,1.6-3L84,298.5z"/>
					<path class="st12" d="M90.3,293.3c0.7-3.9,1.8-7.6,3-11.3l17.4-49.9l-5.3-1.8L88,280.1c-1.3,3.7-2.8,7.3-4.7,10.8l-0.6,1.1
						c-0.1,0.2-0.1,0.3-0.1,0.5l0.5,7.2c0,0.4,0.3,0.8,0.7,0.9l0,0c0.4,0.1,0.8,0,1.1-0.3l4.9-5.4c0.1-0.1,0.2-0.3,0.2-0.5
						L90.3,293.3z"/>
					
						<rect x="88.5" y="242.2" transform="matrix(0.3289 -0.9444 0.9444 0.3289 -162.1097 261.9008)" class="st12" width="29.4" height="5.6"/>
					<g>
						<polygon class="st3" points="82.8,294.2 88.7,296.2 89.4,295.4 82.7,293.1 						"/>
					</g>
					<g>
						
							<rect x="85.4" y="276.9" transform="matrix(0.3289 -0.9444 0.9444 0.3289 -200.8508 273.1558)" class="st13" width="12.8" height="2"/>
					</g>
					
						<rect x="87.5" y="279.9" transform="matrix(0.3289 -0.9444 0.9444 0.3289 -204.362 274.1755)" class="st3" width="6.5" height="2"/>
					<g>
						
							<rect x="97.9" y="256.1" transform="matrix(0.3289 -0.9444 0.9444 0.3289 -178.4985 266.6602)" class="st13" width="1" height="5.6"/>
					</g>
					<g>
						
							<rect x="106.9" y="230" transform="matrix(0.3289 -0.9444 0.9444 0.3289 -147.7646 257.7168)" class="st13" width="1" height="5.6"/>
					</g>
				</g>
			</g>
			<path class="st15" d="M107.7,307.7H78.2c-1.6,0-2.9-1.3-2.9-2.9v-45.6h35.3v45.6C110.6,306.4,109.3,307.7,107.7,307.7z"/>
		</g>
		<g id="XMLID_162_">
			<path id="XMLID_87_" class="st16" d="M369.1,170c0,0-16.2-18.9-25.7-35.8c-9.5-16.9-17.7-24.9-29.2-42.7
				c-11.4-17.8-15.9-7.6-15.6-4.7c0.3,2.9,6.4,13.7,12.4,18.5c5.9,4.7,10.6,15.3,1.1,20.1c-9.5,4.8-9.4,6.9-8.4,8.9
				c0.9,2,2.3,7.7,2.3,7.7s-2.2,3.3,0.7,7.5s2.9,4.2,2.9,4.2s0.4,6.4,5.4,9.1c0,0,6.6,7,9.8,8.3s17.1-0.3,18.5-0.8
				c1.4-0.5,8.3,12,8.3,12L369.1,170z"/>
			<path id="XMLID_86_" class="st17" d="M333,123.5c0,0,2.1,6.1,2.7,7.8c0.6,1.7-28.7,11.2-28.7,11.2c1.6,1,27.4-8.7,30.5-10.3
				c3.1-1.6,5.3,9.3,4.3,11.5c-0.9,2.1-23,9-29.6,10.3c0,0,17.9-2.5,28.7-8.2c0,0,4,5.7,3.9,8.7c0,3-18.9,8.9-25.4,9.5
				c0,0,8,2,19.8-4.4c11.8-6.4,5.8-3.4,5.8-3.4s5.8,6.2,5.7,7.8c-0.1,1.6-5.8,6-7.6,6.4c0,0,0.9,0.4,1.8,1.3
				c0.9,0.9,12.5,5.8,15.8,1.1c3.3-4.7-5.1-10.3-5.1-10.3s0.8-7.5-0.8-9.4c-1.6-1.9-4.2-1.3-4.2-1.3s1.5-0.4,1-2.8
				c-0.5-2.4-3.5-6.3-5.8-6.2c0,0,1.2,0,0.5-1.9c-0.7-1.9-3-9.1-4.8-9.9C339.9,129.9,338.3,124.6,333,123.5z"/>
		</g>
		<g id="XMLID_298_">
			<path id="XMLID_39_" class="st16" d="M230.8,249.2c0,0,3.2-26.9,7.4-28c4.2-1.1,15.8,5.8,16.9,8.4c1.1,2.6,0.5,9,0.5,9
				s11.1,3.7,11.1,7.9c0,4.2-6.9,9-6.9,9L230.8,249.2z"/>
			<path id="XMLID_38_" class="st17" d="M232,242.4c0,0,14.3,1.5,15.6,0.7c1.2-0.8-2-6.1-5.3-12.6c-3.3-6.5,3.7,2.4,5.7,8.2
				c0,0,0.4-4.5,0.8-2.9c0.4,1.6,0,4.9,0,4.9s4.7-12.5,6.8-1.9c0,0,6.2,6,0.9,9.2c-1.9,1.2-10.2,5.3-25.3-1.6L232,242.4z"/>
			<path id="XMLID_37_" class="st16" d="M299.1,289.1c0,0-33-10.8-36.1-14.5c-3.2-3.7-35.9-25.3-45.4-30.6
				c-9.5-5.3-1.1-29.5,4.2-33.2c5.3-3.7,7.4,1.6,4.2,8.4c-3.2,6.9-6.9,21.1-3.7,22.7c3.2,1.6,27.4,7.9,35.3,7.4
				c7.9-0.5,6.3-12.1,4.2-19c-2.1-6.9,0-18.5,1.6-21.6c1.6-3.2,6.3,0.5,6.3,0.5s1.1,19.5,2.6,26.4c1.6,6.9,19.5,20,11.1,34.3
				l16.4,1.1L299.1,289.1z"/>
			<path class="st17" d="M217.4,219.8c0,0-0.1,0-0.1,0c-0.2,0-0.5-0.2-0.6-0.8l0.5-0.1c0,0.1,0.1,0.3,0.2,0.4c0.9,0.2,4.2-4.5,6.4-8
				l-2-0.4l0.1-0.5l2.7,0.5l-0.2,0.3C223.4,212.7,219.1,219.8,217.4,219.8z"/>
			<path class="st17" d="M266,220.9c-0.2,0-0.5-0.1-0.7-0.3c-1.8-1.4-2.1-8.8-0.6-11.7l0.1-0.2l5.4,1.1l0,0.2
				c0,0.3-0.5,8.3-3.3,10.5C266.6,220.8,266.3,220.9,266,220.9z M265,209.2c-1.4,3-0.9,9.8,0.6,11c0.2,0.2,0.5,0.3,1-0.1
				c2.3-1.9,3-8.7,3.1-10L265,209.2z"/>
		</g>
		<g id="XMLID_236_">
			<path id="XMLID_44_" class="st16" d="M127.7,179.3c0,0,10,18.7,7.7,22.9c-2.3,4.2-24.7,15.2-27.3,15c-2.6-0.2-9.2-4.3-9.6-6.1
				c-0.5-1.8,3.6-2.1,3.6-2.1s-8.3-1.7-9.5-3.9c-1.2-2.1,2.9-6.5,8.6-5l8.2-17.9L127.7,179.3z"/>
			<path id="XMLID_43_" class="st17" d="M129.7,183.2l0.6,1.9c0,0-4.9,4.3-8.3,6.2c0,0,0.5,7.4,1.2,7.6c0.8,0.2,7.7,0.8,7,1.1
				c-0.7,0.3-6.7,0.4-7.7,0.2c0,0-2.1,5.3-5.5,3.1c-3.4-2.3-5.3,6-5.3,6l2.3,5.5l-2.7,0.9c0,0-2-5.1-2.6-6.8c-0.6-1.7-6.7,0-6.7,0
				l-3.3-1.2c0,0-1.1-5.9,0.3-7.2c1.4-1.3,9.1-4.8,9.1-4.8s-1-8.8-0.4-9.9c0.7-1,8.9-8.7,10.5-9.5
				C120.1,175.7,127.3,180.7,129.7,183.2z"/>
			<path id="XMLID_42_" class="st16" d="M58.1,177.4c0,0,17.9-7.5,22.6-11c4.9-3.7,36.6-0.1,44.1,2.9c7.4,3,27.7,6.8,32,7
				c4.3,0.2,16.2,0.3,20-1.2c3.7-1.5,3.5,8.7-9.2,10.4c-12.7,1.6-45.7-7.9-52.9-0.6c0,0-2.6,7,1.2,12.3c3.7,5.3,14.5,15,16.2,21.7
				c1.7,6.7-7.1,8.6-8.4,8.3c-1.3-0.3-15.6-18.8-16.1-20.1c-0.5-1.2-0.5-1.7-1.5-3.3c-1-1.6-20.2-9-26.5-15c0,0-18.9,11.8-21,12.4
				L58.1,177.4z"/>
			<g id="XMLID_251_">
				<path id="XMLID_58_" class="st17" d="M113,215.6c-3-3.8-5.7-7.9-7.2-12.5c-0.1-0.2,0.5-0.2,0.5,0c1.5,4.6,4.2,8.6,7.1,12.3
					C113.6,215.7,113.1,215.8,113,215.6L113,215.6z"/>
			</g>
			<path class="st17" d="M171.6,180.2c-2.4,0-5.8-0.7-7.1-3.6l0.5-0.2c1.7,3.8,7.5,3.5,8.8,3c1.1-0.4,1.5-3.1,1.5-4.1l0.5,0
				c0,0.4-0.3,3.9-1.9,4.5C173.5,180.1,172.6,180.2,171.6,180.2z"/>
			<path class="st17" d="M123.4,224.8c-0.7,0-2-1.9-2.5-2.7c-1.9-3.1-3.5-7.3-1.8-9.1c0.7-0.7,1.6-1,2.6-0.8
				c2.8,0.4,6.7,3.7,9.1,7.9l0.1,0.2l-0.2,0.1c-0.3,0.2-6.2,4.1-7.2,4.4C123.4,224.8,123.4,224.8,123.4,224.8z M121.2,212.7
				c-0.7,0-1.3,0.2-1.8,0.7c-1,1-0.5,3,0,4.5c1.1,3.2,3.4,6.3,3.9,6.4c0.7-0.2,5-3,6.8-4.2c-2.3-3.9-6-7.1-8.6-7.4
				C121.5,212.7,121.3,212.7,121.2,212.7z"/>
		</g>
		<path class="st18" d="M351.5,182.3c9.8,24.2,42.5,54.8,55,57.5c12.5,2.7,15.2-19.1,12.5-23.6s13.8-0.8-1.8-10
			c-15.7-9.2-33.7-18.9-48-36.1C353.7,180.7,351.5,182.3,351.5,182.3z"/>
		<path class="st18" d="M58.1,177.4C23.3,194,3.9,222.7,0.7,228.2s5.5,18.4,12.9,19.8c7.4,1.4,1.4,10.3,7.8,9.8
			c6.5-0.5,12-31.7,37.1-56.7C58.5,195,58.1,177.4,58.1,177.4z"/>
		<path class="st19" d="M299.9,270.9c29.1,2.5,89.1,5.5,101.4-1.1c12.3-6.5,6.9,17.7,2.2,26.8c-4.7,9.2,8.1,14.6-1.1,15.9
			c-40.8,5.5-93.9-17.8-103.3-23.4C299.1,280.3,299.9,270.9,299.9,270.9z"/>
		<g>
			<path class="st13" d="M359.6,302.2c-2.2,1.7-4.4,3.2-6.7,4.8c-1.1,0.8-2.2,1.6-3.3,2.4c-1.2,0.9-2.3,1.8-3.5,2.7
				c-0.7,0.5-1.2,1.4-1.3,2.2c0,0.3,0,0.6,0,0.9c0.1,0.6,0.3,1.1,0.7,1.6c0.3,0.6,0.8,1,1.3,1.5c0.5,0.5,1,0.9,1.5,1.3
				c1.1,0.9,2.2,1.7,3.3,2.5c1.2,0.8,2.4,1.5,3.6,2.2c1.2,0.7,2.8,1.2,4.2,0.5c1-0.5,1.7-1.1,2.2-2.1c0.1-0.3,0.2-0.7,0.3-1
				c0.1-0.7,0-1.4-0.3-2.1c0,0,0,0,0,0c-0.3-0.7-0.7-1.2-1.2-1.6c-0.4-0.3-0.8-0.5-1.3-0.7c-0.1-0.1-0.2-0.1-0.3-0.2
				c-0.5-0.3-1-0.6-1.6-0.9c-1.2-0.7-2.5-1.4-3.7-2.1c-0.2-0.1-0.5-0.3-0.7-0.5c0.5-0.7,1.1-1.3,1.7-1.9c2.4-2.2,5.1-4.1,7.7-6.2
				c0.9-0.7,1.1-2,0.4-3c-0.3-0.5-0.9-0.7-1.4-0.8C360.6,301.7,360,301.8,359.6,302.2L359.6,302.2L359.6,302.2z"/>
			<path class="st12" d="M361.1,293.6c-0.5-0.1-1,0-1.4,0.2c-0.6,0.3-1.1,0.7-1.4,1.4c-0.5,1-0.9,2-1.3,3c-0.5,1.1-1,2.3-1.5,3.4
				c-1,2.1-2,4-3,5.8c-0.9,1.4-1.7,2.6-2.5,3.6c-0.5,0.6-0.7,1.4-0.6,2.2c0.1,0.6,0.5,1.5,1.1,1.9c0.7,0.5,1.5,0.9,2.2,1.4l0.8,0.5
				c2.9,1.7,5.6,3.5,8,5.8c0.4,0.3,0.9,0.6,1.5,0.7c0.3,0,0.6,0,0.9,0c1.1-0.1,2-0.8,2.6-1.9c0.4-0.8,0.7-1.6,1.1-2.6
				c0.6,0.4,1.1,0.7,1.6,0.9c0.5,0.2,0.9,0.3,1.3,0.3c0.4,0.1,0.8,0.1,1.3,0.1c1.4,0,2.7-0.7,3.5-1.3c1.9-1.4,3.2-3.9,3.2-6.5
				c0-1.6-0.2-3-0.8-4.4c-0.7-1.7-1.8-2.9-2.8-3.9c-0.2-0.2-0.5-0.3-0.7-0.4c-1.4-1.4-3.1-3-4.9-4.5c-2.3-2-4.8-3.7-7.7-5.3
				C361.6,293.7,361.3,293.6,361.1,293.6L361.1,293.6L361.1,293.6z"/>
			<path class="st3" d="M374.3,313.2c-0.8,0.1-1.4,0.9-1.3,1.6c0.1,0.9,0.2,1.8,0.2,2.8c0,0.9-0.1,1.9-0.4,2.8
				c-0.2,0.5-0.4,1.1-0.7,1.6c-0.2,0.4-0.5,0.7-0.8,1c-0.3,0.3-0.6,0.5-1,0.7c-0.7,0.4-1.5,0.7-2.2,0.9c-1.4,0.3-2.8,0.4-4.2,0.5
				c-2.6,0-5.2-0.4-7.8-0.9c0-0.1,0-0.2,0.1-0.3c0.2-0.9,0.4-1.8,0.5-2.7c0.3-1.9,0.6-3.9,0.8-5.9c0.1-0.6-0.1-1.2-0.4-1.7
				c-0.4-0.5-0.9-0.8-1.5-0.9c-1.3-0.2-2.4,0.7-2.6,1.9c-0.3,1.8-0.6,3.7-0.9,5.5c-0.3,1.8-0.7,3.6-1,5.5c-0.2,1.2,0.7,2.5,2,2.6
				c2.8,0.3,5.6,0.7,8.5,0.8c2.7,0.1,5.5,0,8.1-0.9c2.3-0.8,4.2-2.5,5.4-4.7c0.6-1.1,0.9-2.4,1-3.7c0.2-1.7,0.1-3.5-0.2-5.2
				c-0.1-0.7-0.6-1.2-1.3-1.3C374.5,313.2,374.4,313.2,374.3,313.2L374.3,313.2L374.3,313.2z M364,325.1c-0.1,0-0.1,0-0.2,0
				C363.8,325.1,363.9,325.1,364,325.1L364,325.1L364,325.1z"/>
			<path class="st3" d="M361.8,315.9c-1-0.1-2-0.1-3-0.1c-0.8,0-1.7,0.2-2.4,0.6c-0.4,0.2-0.9,0.4-1.2,0.7c-0.7,0.6-1,1-1.4,1.8
				c-0.2,0.4-0.3,1-0.4,1.5c-0.1,0.5-0.1,1.1,0,1.6c0.3,2,1.8,3.5,3.6,4.3c0.8,0.3,1.6,0.5,2.5,0.7c0.7,0.1,1.4,0.2,2.1,0.2
				c1.6,0.1,3.2,0.1,4.9,0c0.5,0,1.1-0.1,1.6-0.1c0.5-0.1,1.2-0.1,1.6-0.4c0.5-0.2,0.8-0.5,1.1-0.9c0.4-0.5,0.6-1.1,0.6-1.7
				c0.8-0.2,1.5-0.5,2-1.2c0.6-0.7,0.8-1.6,0.7-2.5c-0.2-1.7-1.9-3.2-3.6-2.9c-1.2-0.1-2.4-0.4-3.7-0.6c-1.5-0.3-3.1-0.6-4.6-0.9
				C362.1,316,362,316,361.8,315.9L361.8,315.9L361.8,315.9z"/>
			<path class="st3" d="M352.6,298.1c-1,0.2-2,0.6-2.8,1.2c-0.8,0.6-1.5,1.6-1.8,2.6c-0.2,0.6-0.3,1.1-0.4,1.7c-0.1,0.7-0.1,1.3,0,2
				c0.1,1.2,0.4,2.4,0.7,3.6c0.3,1.2,0.8,2.4,1.3,3.5c0.6,1.3,1.3,2.6,2.2,3.7c0.6,0.7,1.6,1,2.4,0.7c1.1-0.4,1.5-1.6,1.1-2.7
				c-0.9-2.3-1.9-4.5-2.6-6.9c-0.3-1-0.4-2.1-0.5-3.2c0-0.4,0.1-0.8,0.2-1.3c0.1-0.3,0.2-0.5,0.3-0.7c0.1-0.1,0.1-0.2,0.2-0.2
				c0.1-0.1,0.1-0.1,0.2-0.2c0.2-0.1,0.3-0.1,0.5-0.2c0.4-0.1,0.8-0.1,1.1-0.1c0.9,0,1.8,0.2,2.7,0.4c0.7,0.2,1.4,0.5,2.1,0.7
				c0.8,0.3,1.8,0,2.1-0.8c0.3-0.8,0-1.8-0.8-2.1c-1.5-0.6-3.1-1.2-4.7-1.5c-0.3-0.1-0.5-0.1-0.8-0.1
				C354.4,298,353.5,297.9,352.6,298.1L352.6,298.1L352.6,298.1z"/>
			<path class="st3" d="M354,301.3c-0.6,0.4-1.2,0.8-1.7,1.3c-0.3,0.2-0.6,0.5-0.8,0.9c-0.1,0.3-0.2,0.5-0.3,0.8
				c-0.1,0.5-0.2,1-0.2,1.5c0,0.2,0,0.3,0,0.5c0,0,0,0,0,0c0,0,0,0,0,0c0,0.2,0.1,0.3,0.1,0.5c0.1,0.2,0.1,0.3,0.2,0.4
				c0.1,0.7,0.3,1.3,0.4,1.9c0.4,1.4,0.9,2.8,1.3,4.2c0,0.1,0,0.1,0.1,0.2c0.1,0.5,0.3,0.9,0.7,1.2c0.4,0.3,0.9,0.5,1.4,0.4
				c1-0.1,1.8-1.1,1.6-2.1c-0.3-2.5-1.2-5-1.3-7.6c0-0.4,0-0.8,0-1.2c0.1-0.1,0.2-0.2,0.4-0.3c0.8-0.5,0.9-1.7,0.3-2.4
				c-0.3-0.4-0.7-0.6-1.1-0.7C354.9,301,354.4,301.1,354,301.3L354,301.3L354,301.3z M353.2,313.5c0,0.1,0.1,0.2,0.1,0.4
				C353.3,313.7,353.3,313.6,353.2,313.5L353.2,313.5L353.2,313.5z"/>
		</g>
		<g>
			<path class="st13" d="M170.5,299.8c1.9,1.2,3.7,2.6,5.5,3.9c0.9,0.7,1.8,1.3,2.7,1.9c1,0.7,2.1,1.3,3,2c0.6,0.4,1.4,0.6,2.1,0.5
				c0.2-0.1,0.5-0.2,0.7-0.2c0.4-0.2,0.8-0.5,1.1-0.9c0.4-0.4,0.6-0.9,0.8-1.4c0.2-0.5,0.4-1,0.6-1.5c0.4-1.1,0.7-2.2,1.1-3.3
				c0.3-1.1,0.6-2.3,0.8-3.4c0.2-1.2,0.2-2.5-0.7-3.4c-0.6-0.6-1.3-1.1-2.2-1.1c-0.3,0-0.6,0-0.9,0c-0.6,0.1-1.1,0.4-1.6,0.8
				c0,0,0,0,0,0c-0.4,0.4-0.8,0.8-1,1.4c-0.1,0.4-0.2,0.8-0.2,1.2c0,0.1,0,0.2-0.1,0.3c-0.1,0.5-0.2,1-0.3,1.5
				c-0.2,1.2-0.4,2.3-0.7,3.5c-0.1,0.2-0.1,0.5-0.2,0.7c-0.7-0.2-1.3-0.5-1.9-0.8c-2.4-1.3-4.6-2.9-6.8-4.4
				c-0.8-0.5-1.9-0.4-2.4,0.4c-0.3,0.4-0.4,0.9-0.3,1.3C169.8,299.1,170.1,299.5,170.5,299.8L170.5,299.8L170.5,299.8z"/>
			<path class="st12" d="M163.4,300.8c0.1,0.4,0.3,0.8,0.5,1.1c0.4,0.4,0.9,0.7,1.5,0.8c0.9,0.1,1.8,0.2,2.7,0.3
				c1,0.1,2.1,0.2,3.1,0.3c1.9,0.2,3.7,0.5,5.4,0.8c1.3,0.3,2.5,0.6,3.5,1c0.6,0.2,1.3,0.2,1.9-0.1c0.5-0.2,1.1-0.8,1.2-1.4
				c0.2-0.7,0.3-1.4,0.5-2.1l0.2-0.8c0.6-2.7,1.3-5.3,2.4-7.8c0.2-0.4,0.2-0.8,0.1-1.4c0-0.3-0.1-0.5-0.2-0.7
				c-0.4-0.8-1.2-1.4-2.2-1.5c-0.7-0.1-1.5-0.2-2.3-0.2c0.2-0.6,0.2-1.1,0.2-1.5c0-0.4,0-0.8-0.1-1.1c-0.1-0.3-0.2-0.7-0.3-1.1
				c-0.4-1.1-1.3-1.9-1.9-2.4c-1.6-1.1-3.9-1.5-5.9-0.8c-1.3,0.4-2.3,1-3.2,1.7c-1.1,1-1.8,2.2-2.3,3.2c-0.1,0.2-0.1,0.5-0.1,0.7
				c-0.7,1.4-1.5,3.2-2.3,5c-1,2.3-1.7,4.7-2.2,7.4C163.3,300.4,163.3,300.6,163.4,300.8L163.4,300.8L163.4,300.8z"/>
			<path class="st3" d="M175.3,285.4c0.3,0.6,1,0.9,1.6,0.6c0.7-0.3,1.4-0.7,2.1-0.9c0.7-0.2,1.5-0.4,2.2-0.4c0.5,0,0.9,0,1.4,0.1
				c0.4,0.1,0.7,0.2,1,0.4c0.3,0.2,0.6,0.4,0.8,0.6c0.5,0.5,0.9,1,1.3,1.5c0.6,1,1.1,2,1.4,3.1c0.7,2.1,1.1,4.2,1.3,6.3
				c-0.1,0-0.2,0-0.2,0c-0.8,0.1-1.5,0.2-2.3,0.3c-1.6,0.3-3.2,0.6-4.8,0.9c-0.5,0.1-0.9,0.4-1.2,0.8c-0.3,0.4-0.4,0.9-0.3,1.4
				c0.2,1,1.2,1.7,2.2,1.5c1.5-0.2,3-0.5,4.6-0.7c1.5-0.2,3-0.4,4.5-0.6c1-0.2,1.8-1.2,1.5-2.2c-0.5-2.3-1-4.6-1.6-6.9
				c-0.6-2.2-1.5-4.3-2.8-6.1c-1.2-1.6-3.1-2.7-5.1-3c-1-0.2-2.2-0.1-3.2,0.2c-1.4,0.3-2.7,0.9-4,1.5c-0.5,0.2-0.8,0.8-0.7,1.3
				C175.2,285.2,175.2,285.3,175.3,285.4L175.3,285.4L175.3,285.4z M187.2,290.3c0,0.1,0,0.1,0.1,0.2
				C187.3,290.4,187.3,290.4,187.2,290.3L187.2,290.3L187.2,290.3z"/>
			<path class="st3" d="M180.7,294.4c0.2,0.8,0.4,1.6,0.7,2.4c0.2,0.6,0.6,1.3,1.1,1.7c0.2,0.2,0.6,0.6,0.9,0.7
				c0.7,0.4,1,0.5,1.8,0.6c0.4,0.1,0.8,0,1.3-0.1c0.4-0.1,0.9-0.2,1.3-0.4c1.5-0.8,2.3-2.3,2.4-3.9c0.1-0.7,0-1.4-0.1-2.1
				c-0.1-0.6-0.2-1.1-0.4-1.7c-0.3-1.3-0.8-2.6-1.3-3.8c-0.2-0.4-0.4-0.8-0.5-1.2c-0.2-0.4-0.4-0.9-0.7-1.2c-0.3-0.3-0.6-0.5-1-0.7
				c-0.5-0.2-1-0.2-1.5,0c-0.4-0.6-0.8-1-1.5-1.3c-0.7-0.3-1.5-0.2-2.2,0.1c-1.3,0.6-2,2.3-1.3,3.6c0.2,1,0.3,2,0.5,3
				c0.2,1.3,0.3,2.6,0.5,3.8C180.6,294.2,180.6,294.3,180.7,294.4L180.7,294.4L180.7,294.4z"/>
			<path class="st3" d="M169.1,306.3c0.4,0.8,1,1.4,1.7,1.9c0.7,0.5,1.6,0.7,2.5,0.7c0.5,0,0.9,0,1.4-0.1c0.5-0.1,1-0.3,1.5-0.5
				c1-0.4,1.8-0.9,2.7-1.5c0.9-0.6,1.6-1.2,2.4-1.9c0.9-0.8,1.7-1.7,2.4-2.7c0.4-0.6,0.4-1.5-0.1-2.1c-0.6-0.7-1.7-0.8-2.4-0.2
				c-1.6,1.3-3,2.7-4.7,3.9c-0.8,0.5-1.5,0.9-2.4,1.2c-0.3,0.1-0.7,0.2-1,0.2c-0.2,0-0.4,0-0.7-0.1c-0.1,0-0.2-0.1-0.2-0.1
				c-0.1,0-0.1-0.1-0.2-0.1c-0.1-0.1-0.2-0.2-0.3-0.4c-0.2-0.3-0.3-0.6-0.4-0.9c-0.2-0.7-0.3-1.5-0.4-2.2c0-0.6,0-1.2,0-1.8
				c0-0.7-0.5-1.4-1.2-1.4c-0.7-0.1-1.4,0.5-1.4,1.2c-0.1,1.4-0.1,2.7,0.1,4.1c0,0.2,0.1,0.4,0.1,0.6
				C168.5,304.9,168.8,305.7,169.1,306.3L169.1,306.3L169.1,306.3z"/>
			<path class="st3" d="M171.3,304.4c0.5,0.3,1,0.7,1.5,0.9c0.3,0.2,0.6,0.3,0.9,0.4c0.2,0,0.5,0,0.7,0c0.4,0,0.8-0.1,1.2-0.2
				c0.1,0,0.3-0.1,0.4-0.1c0,0,0,0,0,0l0,0c0.1-0.1,0.2-0.1,0.4-0.2c0.1-0.1,0.2-0.2,0.3-0.3c0.5-0.2,0.9-0.5,1.4-0.9
				c1-0.7,1.9-1.5,2.9-2.1c0.1,0,0.1-0.1,0.2-0.1c0.4-0.2,0.6-0.5,0.8-0.9c0.1-0.4,0.1-0.8-0.1-1.2c-0.4-0.8-1.3-1.1-2.1-0.7
				c-1.9,0.9-3.6,2.3-5.6,3c-0.3,0.1-0.7,0.2-1,0.3c-0.1-0.1-0.2-0.1-0.3-0.2c-0.6-0.5-1.6-0.3-2,0.4c-0.2,0.3-0.3,0.7-0.2,1
				C170.7,303.8,171,304.1,171.3,304.4L171.3,304.4L171.3,304.4z M181,301.8c0.1-0.1,0.2-0.1,0.3-0.2
				C181.1,301.7,181,301.7,181,301.8L181,301.8L181,301.8z"/>
		</g>
		<g>
			<path class="st12" d="M333.2,316.2c-20.9,0-22.9,13.7-22.9,13.7l22.9,0l22.9,0C356.2,329.9,354.1,316.2,333.2,316.2z"/>
			<path class="st13" d="M334.7,319.1v-2.8c-0.5,0-1,0-1.5,0c-0.5,0-1,0-1.5,0v2.8c0,0.8,0.7,1.5,1.5,1.5
				C334.1,320.6,334.7,319.9,334.7,319.1z"/>
		</g>
		<g>
			
				<rect x="122" y="260.5" transform="matrix(0.9609 0.277 -0.277 0.9609 81.3989 -26.9484)" class="st8" width="28.3" height="28.3"/>
			
				<rect x="125.2" y="261" transform="matrix(0.9609 0.277 -0.277 0.9609 78.3769 -28.3013)" class="st9" width="28.3" height="4.6"/>
		</g>
		<g>
			
				<rect x="323.8" y="231.8" transform="matrix(0.9572 -0.2896 0.2896 0.9572 -56.746 108.3744)" class="st8" width="28.3" height="28.3"/>
			
				<rect x="320.3" y="232.3" transform="matrix(0.9572 -0.2896 0.2896 0.9572 -53.6127 106.8972)" class="st9" width="28.3" height="4.6"/>
		</g>
	</g>
</g>
<g id="DESIGNED_BY_FREEPIK">
</g>
</svg>
