<?xml version="1.0" encoding="utf-8"?>
<!-- Generator: Adobe Illustrator 23.0.0, SVG Export Plug-In . SVG Version: 6.00 Build 0)  -->
<svg version="1.1" id="Capa_1" xmlns="http://www.w3.org/2000/svg" xmlns:xlink="http://www.w3.org/1999/xlink" x="0px" y="0px"
	 viewBox="0 0 512 512" style="enable-background:new 0 0 512 512;" xml:space="preserve">
<style type="text/css">
	.st0{opacity:0.41;}
	.st1{fill:#E2E2EB;}
	.st2{opacity:0.31;}
	.st3{opacity:0.32;fill:#E2E2EB;}
	.st4{opacity:0.83;}
	.st5{opacity:0.81;fill:#E2E2EB;}
	.st6{opacity:0.66;}
	.st7{fill:#FFFFFF;}
	.st8{opacity:0.84;}
	.st9{opacity:0.81;}
	.st10{opacity:0.66;fill:#FFFFFF;}
	.st11{fill:#3C4796;}
	.st12{fill:#6B6AB0;}
	.st13{opacity:0.12;fill:#FFFFFF;}
	.st14{fill:#ED8393;}
	.st15{fill:#C7D8EA;}
	.st16{fill:#5697C5;}
	.st17{opacity:0.35;}
	.st18{fill:#EEF0F1;}
	.st19{opacity:0.36;fill:#4864A9;}
	.st20{opacity:0.47;fill:#FFFFFF;}
	.st21{opacity:0.39;fill:#1A7041;}
</style>
<g>
	<g>
		<g class="st0">
			<g>
				<g>
					<path class="st1" d="M30.8,312.9c-0.8-7.6-1-15.2-0.5-22.9c2.2-35.8,18.4-70.3,43.5-95.3c9-8.9,19.3-17.1,24.8-28.5
						c9.3-19.3,7.5-40.8,19.3-60.1c11.9-19.2,29.8-34.7,50.4-43.2c61.5-25.5,151,5.9,147,83.4c0,0.3,0,0.7,0,1.2
						c-0.2,16.1,12.7,28.9,28.4,28.4c57.9-1.7,109.9,41.2,123.4,98.2c8.7,36.7-0.5,77.9-25.7,105.5c-18.8,20.6-44.9,32.8-71.1,41.6
						c-52.6,17.6-108.6,23.7-163.9,21c-51.7-2.6-106.8-14.8-142.1-53.5C45.4,368.1,33.8,341,30.8,312.9z"/>
				</g>
			</g>
		</g>
		<g class="st2">
			
				<ellipse transform="matrix(2.110500e-02 -0.9998 0.9998 2.110500e-02 244.0724 364.5657)" class="st1" cx="308.2" cy="57.6" rx="13.3" ry="13"/>
		</g>
		<g class="st2">
			<path class="st1" d="M87.6,58c0.2,3.8,3.3,6.7,7.1,6.5c3.7-0.2,6.6-3.4,6.4-7.2c-0.2-3.8-3.3-6.7-7.1-6.5
				C90.3,51,87.4,54.2,87.6,58z"/>
		</g>
		<g class="st2">
			<path class="st1" d="M474.1,213c0.1,2.5,2.2,4.4,4.7,4.3c2.5-0.1,4.3-2.3,4.2-4.8c-0.1-2.5-2.2-4.4-4.7-4.3
				C475.9,208.4,474,210.5,474.1,213z"/>
		</g>
		<g class="st2">
			
				<ellipse transform="matrix(2.092905e-02 -0.9998 0.9998 2.092905e-02 -17.5228 864.9608)" class="st1" cx="432.9" cy="441.4" rx="20.9" ry="20.5"/>
		</g>
	</g>
</g>
<g>
	<g>
		<path class="st3" d="M47,158.2c-5.8,16.8-7.4,35.1-3.6,52.4c5.1,23.3,22.5,43.8,19.5,68.6c-1.8,14.9-1.5,28.6-1.8,43.2
			c-0.7,30.1,20.3,55,44.9,67.4c20,10.1,42.8,12.8,64.8,10.9c19.8-1.7,39.3-6.9,58.1-13.4c18.1-6.2,35.7-13.9,55.2-13.3
			c16.2,0.5,31.3,6.5,46.7,10.7c36.8,10,80.4,8.6,111.6-13.1c34.3-23.8,48.1-68.9,36.2-108.3c-6.4-21.2-15-39.5-11.9-62
			c1.5-11.1,3.8-22.4,1.7-33.4c-1.9-10.1-7.5-19.2-14.1-27.1c-17.7-21.4-43-35-69.2-43c-29.8-9.1-62.8-14.1-93.8-9.3
			c-60.1,9.1-73.2,0.3-136.1-8.7c-42.1-6-81.7,27.5-100.8,62.1C51.5,147,49,152.5,47,158.2z"/>
		<g class="st4">
			<path class="st5" d="M76.1,206.6c8.7-11.4,22.1-19.2,28.6-32.3c7.9-15.7,6.2-34.3,13.2-50.3c10.4-23.7,29.1-43.9,52.7-55
				c11.3-5.3,23.8-8.6,35.9-7.7c18.7,1.4,34.8,12.6,47.4,25.9c18.8,19.8,32,47.9,54.6,63.7c12.4,8.7,27-0.5,40.2-3.5
				c14.9-3.3,30.4-2.5,44.6,1.5c26.2,7.5,48.8,26.2,60.1,51c12.1,26.4,10.3,63-12.3,85.7c-10.5,10.5-24.7,17.5-32.4,30.1
				c-9.7,15.8-10.9,37.2-13.6,54.7c-3,19.4-11.3,38.3-23.8,54c-0.1,0.2-0.3,0.4-0.4,0.5c-21.7,26.9-58.6,36-89.8,22.5
				c0,0-66.3-28.7-66.3-28.7C147.6,389.6,96.5,342.7,72,274.6c-5.3-14.7-7.2-46.1-0.5-60.5C72.8,211.4,74.4,208.9,76.1,206.6z"/>
		</g>
	</g>
</g>
<g>
	<g class="st6">
		<g>
			<g>
				<path class="st7" d="M373.1,218.4h-7.8c-3.3,0-5.9-2.7-5.9-5.9v-8.8c0-1.6-1-3.1-2.6-3.7c-0.9-0.3-1.8-0.7-2.7-1.1
					c-1.5-0.7-3.3-0.4-4.5,0.8l-6.2,6.2c-1.1,1.1-2.6,1.7-4.2,1.7c-1.6,0-3.1-0.6-4.2-1.7l-5.5-5.5c-2.3-2.3-2.3-6.1,0-8.4l6.2-6.2
					c1.2-1.2,1.5-3,0.8-4.5c-0.4-0.9-0.8-1.8-1.1-2.7c-0.6-1.5-2.1-2.6-3.7-2.6h-8.8c-3.3,0-5.9-2.7-5.9-5.9v-7.8
					c0-3.3,2.7-5.9,5.9-5.9h8.8c1.6,0,3.1-1,3.7-2.6c0.3-0.9,0.7-1.8,1.1-2.7c0.7-1.5,0.4-3.3-0.8-4.5l-6.2-6.2
					c-2.3-2.3-2.3-6.1,0-8.4l5.5-5.5c2.3-2.3,6.1-2.3,8.4,0l6.2,6.2c1.2,1.2,3,1.5,4.5,0.8c0.9-0.4,1.8-0.8,2.7-1.1
					c1.5-0.6,2.6-2.1,2.6-3.7v-8.8c0-3.3,2.7-5.9,5.9-5.9h7.8c3.3,0,5.9,2.7,5.9,5.9v8.8c0,1.6,1,3.1,2.6,3.7
					c0.9,0.3,1.8,0.7,2.7,1.1c1.5,0.7,3.3,0.4,4.5-0.8l6.2-6.2c2.3-2.3,6.1-2.3,8.4,0l5.5,5.5c2.3,2.3,2.3,6.1,0,8.4l-6.2,6.2
					c-1.2,1.2-1.5,3-0.8,4.5c0.4,0.9,0.8,1.8,1.1,2.7c0.6,1.5,2.1,2.6,3.7,2.6h8.8c3.3,0,5.9,2.7,5.9,5.9v7.8c0,3.3-2.7,5.9-5.9,5.9
					h-8.8c-1.6,0-3.1,1-3.7,2.6c-0.3,0.9-0.7,1.8-1.1,2.7c-0.7,1.5-0.4,3.3,0.8,4.5l6.2,6.2c2.3,2.3,2.3,6.1,0,8.4l-5.5,5.5
					c-1.1,1.1-2.6,1.7-4.2,1.7c-1.6,0-3.1-0.6-4.2-1.7l-6.2-6.2c-1.2-1.2-3-1.5-4.5-0.8c-0.9,0.4-1.8,0.8-2.7,1.1
					c-1.5,0.6-2.6,2.1-2.6,3.7v8.8C379.1,215.7,376.4,218.4,373.1,218.4z M352.4,196.5c0.9,0,1.7,0.2,2.5,0.6
					c0.8,0.4,1.7,0.7,2.6,1.1c2.3,0.9,3.9,3.1,3.9,5.6v8.8c0,2.2,1.8,3.9,3.9,3.9h7.8c2.2,0,3.9-1.8,3.9-3.9v-8.8
					c0-2.5,1.6-4.7,3.9-5.6c0.9-0.3,1.7-0.7,2.6-1.1c2.3-1.1,5-0.6,6.7,1.2l6.2,6.2c1.5,1.5,4,1.5,5.6,0l5.5-5.5
					c1.5-1.5,1.5-4,0-5.6l-6.2-6.2c-1.8-1.8-2.2-4.5-1.2-6.7c0.4-0.8,0.8-1.7,1.1-2.6c0.9-2.3,3.1-3.9,5.6-3.9h8.8
					c2.2,0,3.9-1.8,3.9-3.9v-7.8c0-2.2-1.8-3.9-3.9-3.9h-8.8c-2.5,0-4.7-1.6-5.6-3.9c-0.3-0.9-0.7-1.7-1.1-2.6
					c-1.1-2.3-0.6-5,1.2-6.7l6.2-6.2c1.5-1.5,1.5-4,0-5.6l-5.5-5.5c-1.5-1.5-4-1.5-5.6,0l-6.2,6.2c-1.8,1.8-4.5,2.2-6.7,1.2
					c-0.8-0.4-1.7-0.8-2.6-1.1c-2.3-0.9-3.9-3.1-3.9-5.6v-8.8c0-2.2-1.8-3.9-3.9-3.9h-7.8c-2.2,0-3.9,1.8-3.9,3.9v8.8
					c0,2.5-1.6,4.7-3.9,5.6c-0.9,0.3-1.7,0.7-2.6,1.1c-2.3,1.1-5,0.6-6.7-1.2l-6.2-6.2c-1.5-1.5-4-1.5-5.6,0l-5.5,5.5
					c-1.5,1.5-1.5,4,0,5.6l6.2,6.2c1.8,1.8,2.2,4.5,1.2,6.7c-0.4,0.8-0.7,1.7-1.1,2.6c-0.9,2.3-3.1,3.9-5.6,3.9h-8.8
					c-2.2,0-3.9,1.8-3.9,3.9v7.8c0,2.2,1.8,3.9,3.9,3.9h8.8c2.5,0,4.7,1.6,5.6,3.9c0.3,0.9,0.7,1.7,1.1,2.6c1.1,2.3,0.6,5-1.2,6.7
					l-6.2,6.2c-1.5,1.5-1.5,4,0,5.6l5.5,5.5c1.5,1.5,4,1.5,5.6,0l6.2-6.2C349.3,197.1,350.8,196.5,352.4,196.5z M369.2,193.5
					c-15.1,0-27.5-12.3-27.5-27.4c0-15.1,12.3-27.5,27.5-27.5c15.1,0,27.5,12.3,27.5,27.5C396.7,181.2,384.4,193.5,369.2,193.5z
					 M369.2,140.6c-14,0-25.5,11.4-25.5,25.5c0,14,11.4,25.4,25.5,25.4c14,0,25.5-11.4,25.5-25.4C394.7,152,383.3,140.6,369.2,140.6
					z"/>
			</g>
			<g class="st8">
				<path class="st7" d="M358.6,361.1h-9.7c-2.3,0-4.4-1.4-5.1-3.6c-0.4-1-0.8-2-1.2-2.9c-1-2.1-0.6-4.6,1.1-6.2l6.9-6.9
					c2.1-2.1,2.1-5.6,0-7.8l-6.1-6.1c-2.1-2.1-5.6-2.1-7.8,0l-6.9,6.9c-1.6,1.6-4.1,2-6.2,1.1c-1-0.4-1.9-0.9-2.9-1.2
					c-2.2-0.8-3.6-2.8-3.6-5.1v-9.7c0-3-2.5-5.5-5.5-5.5h-8.7c-3,0-5.5,2.5-5.5,5.5v9.7c0,2.3-1.4,4.4-3.6,5.1c-1,0.4-2,0.8-2.9,1.2
					c-2.1,1-4.6,0.6-6.2-1.1l-6.9-6.9c-2.1-2.1-5.6-2.1-7.8,0l-6.1,6.1c-2.1,2.1-2.1,5.6,0,7.8l6.9,6.9c1.6,1.6,2,4.1,1.1,6.2
					c-0.4,1-0.9,1.9-1.2,2.9c-0.8,2.2-2.8,3.6-5.1,3.6h-9.7c-3,0-5.5,2.5-5.5,5.5v8.7c0,3,2.5,5.5,5.5,5.5h9.7
					c2.3,0,4.4,1.4,5.1,3.6c0.4,1,0.8,2,1.2,2.9c1,2.1,0.6,4.6-1.1,6.2l-6.9,6.9c-2.1,2.1-2.1,5.6,0,7.8l6.1,6.1
					c2.1,2.1,5.6,2.1,7.8,0l6.9-6.9c1.6-1.6,4.1-2,6.2-1.1c1,0.4,1.9,0.9,2.9,1.2c2.2,0.8,3.6,2.8,3.6,5.1v9.7c0,3,2.5,5.5,5.5,5.5
					h8.7c3,0,5.5-2.5,5.5-5.5v-9.7c0-2.3,1.4-4.4,3.6-5.1c1-0.4,2-0.8,2.9-1.2c2.1-1,4.6-0.6,6.2,1.1l6.9,6.9c2.1,2.1,5.6,2.1,7.8,0
					l6.1-6.1c2.1-2.1,2.1-5.6,0-7.8l-6.9-6.9c-1.6-1.6-2-4.1-1.1-6.2c0.4-1,0.9-1.9,1.2-2.9c0.8-2.2,2.8-3.6,5.1-3.6h9.7
					c3,0,5.5-2.5,5.5-5.5v-8.7C364.1,363.5,361.6,361.1,358.6,361.1z M307.1,400.2c-16.2,0-29.3-13.1-29.3-29.3
					c0-16.2,13.1-29.3,29.3-29.3s29.3,13.1,29.3,29.3C336.4,387.1,323.3,400.2,307.1,400.2z"/>
			</g>
			<g>
				<path class="st7" d="M206.3,419.4h-6.6c-2.8,0-5.2-2.3-5.2-5.2v-7.4c0-1.3-0.8-2.5-2.1-3c-0.8-0.3-1.5-0.6-2.3-1
					c-1.2-0.6-2.7-0.3-3.6,0.6l-5.2,5.2c-1,1-2.3,1.5-3.6,1.5c-1.4,0-2.7-0.5-3.6-1.5l-4.6-4.6c-1-1-1.5-2.3-1.5-3.6
					c0-1.4,0.5-2.7,1.5-3.6l5.2-5.2c0.9-0.9,1.2-2.4,0.6-3.6c-0.3-0.8-0.7-1.5-1-2.3c-0.5-1.2-1.6-2.1-3-2.1H164
					c-2.8,0-5.2-2.3-5.2-5.2V372c0-2.8,2.3-5.2,5.2-5.2h7.4c1.3,0,2.5-0.8,3-2.1c0.3-0.8,0.6-1.6,1-2.3c0.6-1.2,0.3-2.7-0.6-3.6
					l-5.2-5.2c-1-1-1.5-2.3-1.5-3.6c0-1.4,0.5-2.7,1.5-3.6l4.6-4.6c2-2,5.3-2,7.3,0l5.2,5.2c0.9,0.9,2.4,1.2,3.6,0.6
					c0.7-0.3,1.5-0.7,2.3-1c1.2-0.5,2.1-1.6,2.1-3v-7.4c0-2.8,2.3-5.2,5.2-5.2h6.6c2.8,0,5.2,2.3,5.2,5.2v7.4c0,1.3,0.8,2.5,2.1,3
					c0.8,0.3,1.6,0.6,2.3,1c1.2,0.6,2.7,0.3,3.6-0.6l5.2-5.2c2-2,5.3-2,7.3,0l4.6,4.6c1,1,1.5,2.3,1.5,3.6c0,1.4-0.5,2.7-1.5,3.6
					l-5.2,5.2c-0.9,0.9-1.2,2.4-0.6,3.6c0.3,0.7,0.7,1.5,1,2.3c0.5,1.2,1.6,2.1,3,2.1h7.4c2.8,0,5.2,2.3,5.2,5.2v6.6
					c0,2.8-2.3,5.2-5.2,5.2h-7.4c-1.3,0-2.5,0.8-3,2.1c-0.3,0.8-0.6,1.6-1,2.3c-0.6,1.2-0.3,2.7,0.6,3.6l5.2,5.2
					c1,1,1.5,2.3,1.5,3.6c0,1.4-0.5,2.7-1.5,3.6l-4.6,4.6c-1,1-2.3,1.5-3.6,1.5s-2.7-0.5-3.6-1.5l-5.2-5.2c-0.9-0.9-2.4-1.2-3.6-0.6
					c-0.8,0.4-1.5,0.7-2.3,1c-1.2,0.5-2.1,1.6-2.1,3v7.4C211.4,417.1,209.1,419.4,206.3,419.4z M188.8,400.7c0.7,0,1.5,0.2,2.2,0.5
					c0.7,0.3,1.4,0.6,2.2,0.9c2,0.7,3.4,2.7,3.4,4.8v7.4c0,1.7,1.4,3.2,3.2,3.2h6.6c1.7,0,3.2-1.4,3.2-3.2v-7.4
					c0-2.2,1.4-4.1,3.4-4.8c0.7-0.3,1.4-0.6,2.2-0.9c2-0.9,4.3-0.5,5.8,1l5.2,5.2c1.2,1.2,3.3,1.2,4.5,0l4.6-4.6
					c0.6-0.6,0.9-1.4,0.9-2.2s-0.3-1.6-0.9-2.2l-5.2-5.2c-1.5-1.5-1.9-3.9-1-5.8c0.3-0.7,0.6-1.4,0.9-2.2c0.7-2,2.7-3.4,4.8-3.4h7.4
					c1.7,0,3.2-1.4,3.2-3.2V372c0-1.7-1.4-3.2-3.2-3.2h-7.4c-2.2,0-4.1-1.4-4.8-3.4c-0.3-0.7-0.6-1.5-0.9-2.2c-0.9-2-0.5-4.3,1-5.8
					l5.2-5.2c0.6-0.6,0.9-1.4,0.9-2.2s-0.3-1.6-0.9-2.2l-4.6-4.6c-1.2-1.2-3.2-1.2-4.5,0l-5.2,5.2c-1.5,1.5-3.9,1.9-5.8,1
					c-0.7-0.3-1.4-0.6-2.2-0.9c-2-0.7-3.4-2.7-3.4-4.8v-7.4c0-1.7-1.4-3.2-3.2-3.2h-6.6c-1.7,0-3.2,1.4-3.2,3.2v7.4
					c0,2.2-1.4,4.1-3.4,4.8c-0.7,0.3-1.5,0.6-2.2,0.9c-2,0.9-4.3,0.5-5.8-1l-5.2-5.2c-1.2-1.2-3.2-1.2-4.5,0l-4.6,4.6
					c-0.6,0.6-0.9,1.4-0.9,2.2s0.3,1.6,0.9,2.2l5.2,5.2c1.5,1.5,1.9,3.9,1,5.8c-0.3,0.7-0.6,1.4-0.9,2.2c-0.7,2-2.7,3.4-4.8,3.4H164
					c-1.7,0-3.2,1.4-3.2,3.2v6.6c0,1.7,1.4,3.2,3.2,3.2h7.4c2.2,0,4.1,1.4,4.8,3.4c0.3,0.7,0.6,1.5,0.9,2.2c0.9,2,0.5,4.3-1,5.8
					l-5.2,5.2c-0.6,0.6-0.9,1.4-0.9,2.2s0.3,1.6,0.9,2.2l4.6,4.6c1.2,1.2,3.3,1.2,4.5,0l5.2-5.2
					C186.2,401.2,187.5,400.7,188.8,400.7z M203,398.5c-12.8,0-23.2-10.4-23.2-23.2c0-12.8,10.4-23.2,23.2-23.2
					c12.8,0,23.2,10.4,23.2,23.2C226.2,388,215.8,398.5,203,398.5z M203,354c-11.7,0-21.2,9.5-21.2,21.2c0,11.7,9.5,21.2,21.2,21.2
					s21.2-9.5,21.2-21.2C224.2,363.5,214.7,354,203,354z"/>
			</g>
		</g>
	</g>
	<g>
		<g class="st9">
			<path class="st7" d="M418.4,310.9h-13c-0.6,0-1-0.4-1-1c0-0.6,0.4-1,1-1h13c0.6,0,1,0.4,1,1C419.4,310.5,419,310.9,418.4,310.9z"
				/>
			<path class="st7" d="M418.4,332.4h-13c-0.6,0-1-0.4-1-1s0.4-1,1-1h13c0.6,0,1,0.4,1,1S419,332.4,418.4,332.4z"/>
			<g>
				<g>
					<g>
						<path class="st7" d="M427.6,354.1h-79.3c-1.5,0-2.7-1.2-2.7-2.7v-66.3c0-1.5,1.2-2.7,2.7-2.7h79.3c1.5,0,2.7,1.2,2.7,2.7v66.3
							C430.4,352.9,429.1,354.1,427.6,354.1z M348.4,284.4c-0.4,0-0.7,0.3-0.7,0.7v66.3c0,0.4,0.3,0.7,0.7,0.7h79.3
							c0.4,0,0.7-0.3,0.7-0.7v-66.3c0-0.4-0.3-0.7-0.7-0.7H348.4z"/>
						<path class="st10" d="M427.6,354.1h-79.3c-1.5,0-2.7-1.2-2.7-2.7v-66.3c0-1.5,1.2-2.7,2.7-2.7h79.3c1.5,0,2.7,1.2,2.7,2.7
							v66.3C430.4,352.9,429.1,354.1,427.6,354.1z M348.4,284.4c-0.4,0-0.7,0.3-0.7,0.7v66.3c0,0.4,0.3,0.7,0.7,0.7h79.3
							c0.4,0,0.7-0.3,0.7-0.7v-66.3c0-0.4-0.3-0.7-0.7-0.7H348.4z"/>
					</g>
				</g>
				<path class="st7" d="M418.4,300.5h-62.1c-0.6,0-1-0.4-1-1s0.4-1,1-1h62.1c0.6,0,1,0.4,1,1S419,300.5,418.4,300.5z"/>
				<path class="st7" d="M418.4,321.3h-62.1c-0.6,0-1-0.4-1-1c0-0.6,0.4-1,1-1h62.1c0.6,0,1,0.4,1,1
					C419.4,320.9,419,321.3,418.4,321.3z"/>
				<path class="st7" d="M389.8,310.9h-33.5c-0.6,0-1-0.4-1-1c0-0.6,0.4-1,1-1h33.5c0.6,0,1,0.4,1,1
					C390.8,310.5,390.4,310.9,389.8,310.9z"/>
				<path class="st7" d="M389.8,332.4h-33.5c-0.6,0-1-0.4-1-1s0.4-1,1-1h33.5c0.6,0,1,0.4,1,1S390.4,332.4,389.8,332.4z"/>
				<path class="st7" d="M378.9,342.4h-22.6c-0.6,0-1-0.4-1-1c0-0.6,0.4-1,1-1h22.6c0.6,0,1,0.4,1,1
					C379.9,341.9,379.4,342.4,378.9,342.4z"/>
			</g>
		</g>
		<g class="st9">
			<path class="st7" d="M164.8,201.6H150c-0.6,0-1-0.4-1-1c0-0.6,0.4-1,1-1h14.8c0.6,0,1,0.4,1,1
				C165.8,201.1,165.4,201.6,164.8,201.6z"/>
			<path class="st7" d="M164.8,225.9H150c-0.6,0-1-0.4-1-1c0-0.6,0.4-1,1-1h14.8c0.6,0,1,0.4,1,1
				C165.8,225.5,165.4,225.9,164.8,225.9z"/>
			<g>
				<g>
					<g>
						<path class="st7" d="M175.5,250.5H85.1c-1.5,0-2.7-1.2-2.7-2.7v-75.6c0-1.5,1.2-2.7,2.7-2.7h90.4c1.5,0,2.7,1.2,2.7,2.7v75.6
							C178.2,249.3,177,250.5,175.5,250.5z M85.1,171.5c-0.4,0-0.7,0.3-0.7,0.7v75.6c0,0.4,0.3,0.7,0.7,0.7h90.4
							c0.4,0,0.7-0.3,0.7-0.7v-75.6c0-0.4-0.3-0.7-0.7-0.7H85.1z"/>
						<path class="st10" d="M175.5,250.5H85.1c-1.5,0-2.7-1.2-2.7-2.7v-75.6c0-1.5,1.2-2.7,2.7-2.7h90.4c1.5,0,2.7,1.2,2.7,2.7v75.6
							C178.2,249.3,177,250.5,175.5,250.5z M85.1,171.5c-0.4,0-0.7,0.3-0.7,0.7v75.6c0,0.4,0.3,0.7,0.7,0.7h90.4
							c0.4,0,0.7-0.3,0.7-0.7v-75.6c0-0.4-0.3-0.7-0.7-0.7H85.1z"/>
					</g>
				</g>
				<path class="st7" d="M164.8,189.7H94.3c-0.6,0-1-0.4-1-1c0-0.6,0.4-1,1-1h70.5c0.6,0,1,0.4,1,1
					C165.8,189.3,165.4,189.7,164.8,189.7z"/>
				<path class="st7" d="M164.8,213.4H94.3c-0.6,0-1-0.4-1-1c0-0.6,0.4-1,1-1h70.5c0.6,0,1,0.4,1,1
					C165.8,212.9,165.4,213.4,164.8,213.4z"/>
				<path class="st7" d="M132.3,201.6h-38c-0.6,0-1-0.4-1-1c0-0.6,0.4-1,1-1h38c0.6,0,1,0.4,1,1
					C133.3,201.1,132.9,201.6,132.3,201.6z"/>
				<path class="st7" d="M132.3,225.9h-38c-0.6,0-1-0.4-1-1c0-0.6,0.4-1,1-1h38c0.6,0,1,0.4,1,1
					C133.3,225.5,132.9,225.9,132.3,225.9z"/>
				<path class="st7" d="M119.9,237.2H94.3c-0.6,0-1-0.4-1-1c0-0.6,0.4-1,1-1h25.6c0.6,0,1,0.4,1,1
					C120.9,236.8,120.5,237.2,119.9,237.2z"/>
			</g>
		</g>
	</g>
</g>
<g>
	<g>
		<g>
			<path class="st11" d="M425.2,168h-7.9h-31.7h-5.4c-2,0-3.8,1.5-4.5,3.7l-1.5,4.9c-0.7,2.2-2.4,3.7-4.5,3.7h-64.3
				c-2.6,0-4.7,2.4-4.7,5.4l0,0v72.9c0,3,2.1,5.4,4.7,5.4h0.3h111.5h7.9c2.8,0,5-2.4,5-5.4v-67.1v-11.2v-6.8
				C430.2,170.5,428,168,425.2,168z"/>
			<path class="st12" d="M379.3,181l1.6-4.9c0.7-2.2,2.6-3.7,4.8-3.7h39.6c2.8,0,5,2.4,5,5.4v6.8v11.2V263c0,3-2.3,5.4-5,5.4H305.8
				c-2.8,0-5-2.4-5-5.4v-72.9c0-3,2.3-5.4,5-5.4h68.7C376.7,184.7,378.6,183.2,379.3,181z"/>
			<path class="st13" d="M382.2,186.1l1.5-4.7c0.7-2.1,2.5-3.4,4.5-3.4h37.3c2.6,0,4.8,2.3,4.8,5.1v6.4v10.6v63.2
				c0,2.8-2.1,5.1-4.8,5.1H313c-2.6,0-4.8-2.3-4.8-5.1v-68.7c0-2.8,2.1-5.1,4.8-5.1h64.8C379.7,189.5,381.5,188.1,382.2,186.1z"/>
		</g>
		<path class="st7" d="M416.6,262.3h-29.5c-0.6,0-1-0.4-1-1c0-0.6,0.4-1,1-1h29.5c1.9,0,3.5-1.6,3.5-3.5v-23.4c0-0.6,0.4-1,1-1
			c0.6,0,1,0.4,1,1v23.4C422,259.9,419.6,262.3,416.6,262.3z"/>
	</g>
	<g>
		<g>
			<g>
				<path class="st14" d="M72.6,250.9h7.9h31.9h5.4c2,0,3.8,1.7,4.5,4.1l1.5,5.6c0.7,2.5,2.5,4.1,4.5,4.1h64.8
					c2.6,0,4.8,2.7,4.8,6.1v0v82c0,3.4-2.1,6.1-4.8,6.1h-0.3H80.6h-7.9c-2.8,0-5.1-2.7-5.1-6.1v-75.4v-12.6V257
					C67.6,253.6,69.8,250.9,72.6,250.9z"/>
				<path class="st13" d="M118.8,265.5l-1.6-5.6c-0.7-2.5-2.6-4.1-4.8-4.1H72.6c-2.8,0-5.1,2.7-5.1,6.1v7.7v12.6v75.4
					c0,3.4,2.3,6.1,5.1,6.1h120.2c2.8,0,5.1-2.7,5.1-6.1v-82c0-3.4-2.3-6.1-5.1-6.1h-69.1C121.5,269.6,119.6,268,118.8,265.5z"/>
				<path class="st13" d="M115.9,271.2l-1.5-5.2c-0.7-2.3-2.5-3.9-4.5-3.9H72.3c-2.6,0-4.8,2.6-4.8,5.8v7.2V287v71.1
					c0,3.2,2.1,5.8,4.8,5.8h113.3c2.6,0,4.8-2.6,4.8-5.8v-77.2c0-3.2-2.1-5.8-4.8-5.8h-65.2C118.4,275.1,116.6,273.5,115.9,271.2z"
					/>
			</g>
		</g>
		<path class="st7" d="M76.8,286.1c-0.5,0-0.9-0.4-0.9-1v-13.9c0-1.9,1.4-3.4,3.1-3.4h18.6c0.5,0,0.9,0.4,0.9,1c0,0.6-0.4,1-0.9,1
			H79c-0.7,0-1.3,0.6-1.3,1.4v13.9C77.7,285.6,77.3,286.1,76.8,286.1z"/>
	</g>
</g>
<g>
	<g>
		<g>
			<g>
				<path class="st15" d="M319,207.9H190.5c-21.3,0-38.6-17.3-38.6-38.6v0c0-21.3,17.3-38.6,38.6-38.6H319
					c21.3,0,38.6,17.3,38.6,38.6v0C357.6,190.6,340.3,207.9,319,207.9z"/>
				<circle class="st16" cx="254.7" cy="136.5" r="54.3"/>
			</g>
		</g>
		<g>
			<path class="st16" d="M319,196.5H190.5c-21.3,0-38.6-17.3-38.6-38.6v0c0-21.3,17.3-38.6,38.6-38.6H319
				c21.3,0,38.6,17.3,38.6,38.6v0C357.6,179.2,340.3,196.5,319,196.5z"/>
			
				<ellipse transform="matrix(0.9184 -0.3957 0.3957 0.9184 -28.7188 111.0027)" class="st16" cx="254.7" cy="125.1" rx="54.3" ry="54.3"/>
		</g>
		<g class="st17">
			<g>
				<path class="st18" d="M319,196.5H190.5c-21.3,0-38.6-17.3-38.6-38.6v0c0-21.3,17.3-38.6,38.6-38.6H319
					c21.3,0,38.6,17.3,38.6,38.6v0C357.6,179.2,340.3,196.5,319,196.5z"/>
				
					<ellipse transform="matrix(0.9184 -0.3957 0.3957 0.9184 -28.7188 111.0027)" class="st18" cx="254.7" cy="125.1" rx="54.3" ry="54.3"/>
			</g>
		</g>
		<g>
			<g>
				<path class="st7" d="M242,133.2c-0.6,0-1.3-0.2-1.8-0.7c-1-1-1-2.6,0-3.5l14.6-14.3l14.4,14.4c1,1,1,2.6,0,3.5c-1,1-2.6,1-3.5,0
					l-10.8-10.8l-11,10.9C243.3,133,242.7,133.2,242,133.2z"/>
				<path class="st7" d="M254.7,153.1c-1.4,0-2.5-1.1-2.5-2.5v-32.5c0-1.4,1.1-2.5,2.5-2.5c1.4,0,2.5,1.1,2.5,2.5v32.5
					C257.2,152,256.1,153.1,254.7,153.1z"/>
			</g>
			<path class="st7" d="M278.4,168.5h-47.6c-3.4,0-6.2-2.8-6.2-6.2V145c0-1.4,1.1-2.5,2.5-2.5c1.4,0,2.5,1.1,2.5,2.5v17.3
				c0,0.7,0.5,1.2,1.2,1.2h47.6c0.9,0,1.6-0.7,1.6-1.6V145c0-1.4,1.1-2.5,2.5-2.5c1.4,0,2.5,1.1,2.5,2.5V162
				C284.9,165.6,282,168.5,278.4,168.5z"/>
		</g>
	</g>
	<g>
		<path class="st19" d="M330.3,333.9L194,379c-3.3,1.1-6.9-0.7-8-4l-45-136.3c-1.1-3.3,0.7-6.9,4-8l136.3-45c3.3-1.1,6.9,0.7,8,4
			l45,136.3C335.5,329.2,333.7,332.8,330.3,333.9z"/>
		<path class="st7" d="M320.3,328.9l-136.3,45c-3.3,1.1-6.9-0.7-8-4l-45-136.3c-1.1-3.3,0.7-6.9,4-8l136.3-45c3.3-1.1,6.9,0.7,8,4
			l45,136.3C325.4,324.2,323.6,327.8,320.3,328.9z"/>
		<g>
			
				<rect x="162.7" y="212.4" transform="matrix(0.9495 -0.3137 0.3137 0.9495 -75.488 85.3791)" class="st14" width="129.7" height="129.7"/>
		</g>
		<path class="st20" d="M271.7,267.2c-6.6-3.8-21.1,1.5-28.3,4.4c-8.5-2.6-15.1-7.5-20.9-15.7c-0.1-7.3-0.2-18.5-3.9-24.5
			c-4.7-10.7-18.8-5.9-18.9,2.2c-0.1,7.4,4.1,16.5,10.5,27.9c-1.6,11.3-4.4,26.7-6.8,35.8c-7.4,6.6-17.2,16.4-16.7,25.4
			c0.3,7.1,17.3,20.7,29.1-21.8c8.8-5.7,18.2-12.3,27-16.2c9.2,2.3,19.4,2.7,25.8,1.1C279.5,282.9,277.4,270.5,271.7,267.2z
			 M195.7,322.6c0.7-6.4,7.2-15.3,9.1-18.4C200.1,319.3,195.8,322.9,195.7,322.6z M209.4,232c3.2-0.8,6.4,13,5.3,17.2
			C211.2,243.7,208.3,232.2,209.4,232z M214.1,293.1c2.3-8.3,3.6-17.8,4.5-26.1c5.2,5.5,11.1,9.5,16.8,11.8
			C227,282.9,220.3,288.7,214.1,293.1z M269.9,276.3c0,0-1.5,3.1-16.8,0.8C267.8,272.1,271.1,274.9,269.9,276.3z"/>
	</g>
	<g>
		<path class="st19" d="M371.4,358.5H264.9c-3.5,0-6.4-2.8-6.4-6.4V245.7c0-3.5,2.8-6.4,6.4-6.4h106.4c3.5,0,6.4,2.8,6.4,6.4v106.4
			C377.7,355.6,374.9,358.5,371.4,358.5z"/>
		<path class="st7" d="M365.3,352.4H258.9c-3.5,0-6.4-2.8-6.4-6.4V239.6c0-3.5,2.8-6.4,6.4-6.4h106.4c3.5,0,6.4,2.8,6.4,6.4v106.4
			C371.7,349.6,368.8,352.4,365.3,352.4z"/>
		<g>
			<rect x="262.6" y="243.4" class="st21" width="98.8" height="98.8"/>
			<path class="st20" d="M337.2,257.4h-10.6c-1.6,0-3.1,0.9-3.9,2.3c-6.6,12.2-8.2,15.7-10.6,21.3c-5.1-10.7-2.5-6.4-10.6-21.3
				c-0.8-1.4-2.3-2.3-3.9-2.3H287c-3.4,0-5.5,3.7-3.8,6.6l17.1,28.8l-17.1,28.8c-1.7,3,0.4,6.6,3.8,6.6h10.7c1.6,0,3.1-0.9,3.9-2.3
				c8-14.8,8.5-16.6,10.6-21.3c5.5,11.2,2.2,5.9,10.6,21.3c0.8,1.4,2.3,2.3,3.9,2.3h10.6c3.4,0,5.5-3.7,3.8-6.6l-17.1-28.8
				c0.3-0.4,11.2-18.7,17.1-28.8C342.8,261.1,340.6,257.4,337.2,257.4z"/>
		</g>
	</g>
	<g>
		<path class="st19" d="M295.4,368.7l-60.2,22.5c-3.3,1.2-7-0.4-8.2-3.7l-22.5-60.2c-1.2-3.3,0.4-7,3.7-8.2l60.2-22.5
			c3.3-1.2,7,0.4,8.2,3.7l22.5,60.2C300.3,363.8,298.7,367.5,295.4,368.7z"/>
		<path class="st7" d="M290.4,366.4l-60.2,22.5c-3.3,1.2-7-0.4-8.2-3.7l-22.5-60.2c-1.2-3.3,0.4-7,3.7-8.2l60.2-22.5
			c3.3-1.2,7,0.4,8.2,3.7l22.5,60.2C295.3,361.5,293.6,365.2,290.4,366.4z"/>
		<g>
			
				<rect x="214.8" y="309.7" transform="matrix(0.9364 -0.3509 0.3509 0.9364 -104.1879 108.2905)" class="st16" width="63.9" height="63.9"/>
			<path class="st20" d="M227.1,384.3l-5.4-14.5l6.1-16.5c1-2.6,3.7-4,6.4-3.3l12.4,3.3c0.4,0.1,0.8-0.1,1-0.4l9.5-17.4
				c2.2-4,7.1-5.8,11.4-4.2l11.8,4.5l9.4,25.1L227.1,384.3z M224.9,369.7l4,10.7l57-21.4l-7.9-21l-10.5-4c-2.9-1.1-6.2,0.1-7.7,2.8
				l-9.5,17.4c-0.9,1.6-2.7,2.3-4.4,1.9l-12.4-3.3c-1.2-0.3-2.4,0.3-2.8,1.5L224.9,369.7z"/>
			<path class="st20" d="M245.6,336c-3.5,0-6.8-2.1-8.1-5.6c-1.7-4.5,0.6-9.4,5-11.1c4.4-1.7,9.4,0.6,11.1,5l0,0
				c1.7,4.5-0.6,9.4-5,11.1C247.6,335.8,246.6,336,245.6,336z M245.6,321.8c-0.7,0-1.3,0.1-2,0.4c-2.9,1.1-4.4,4.3-3.3,7.2
				c1.1,2.9,4.3,4.4,7.2,3.3c2.9-1.1,4.4-4.3,3.3-7.2C250,323.2,247.9,321.8,245.6,321.8z"/>
		</g>
	</g>
</g>
</svg>
