<?xml version="1.0" encoding="utf-8"?>
<!-- Generator: Adobe Illustrator 23.0.0, SVG Export Plug-In . SVG Version: 6.00 Build 0)  -->
<svg version="1.1" id="Layer_1" xmlns="http://www.w3.org/2000/svg" xmlns:xlink="http://www.w3.org/1999/xlink" x="0px" y="0px"
	 viewBox="0 0 512 512" style="enable-background:new 0 0 512 512;" xml:space="preserve">
<style type="text/css">
	.st0{fill:#98002E;}
</style>
<g id="XMLID_1114_">
	<path id="XMLID_1115_" class="st0" d="M419.5,433.1C374.8,474.3,316.8,497,256,497c-64.4,0-124.9-25.1-170.4-70.6S15,320.4,15,256
		S40.1,131.1,85.6,85.6S191.6,15,256,15c58.6,0,115.1,21.3,159.1,60c3.1,2.7,7.8,2.4,10.6-0.7c2.7-3.1,2.4-7.8-0.7-10.6
		C378.3,22.6,318.3,0,256,0C187.6,0,123.3,26.6,75,75C26.6,123.3,0,187.6,0,256s26.6,132.7,75,181c48.4,48.4,112.6,75,181,75
		c64.6,0,126.2-24.1,173.6-67.9c3-2.8,3.2-7.6,0.4-10.6C427.2,430.4,422.5,430.3,419.5,433.1z"/>
	<path id="XMLID_1116_" class="st0" d="M129.9,421.8c36.5,27.8,80.1,42.5,126.1,42.5c114.8,0,208.3-93.4,208.3-208.3
		c0-46-14.7-89.6-42.5-126.1c-1.3-1.7-3.3-2.8-5.5-2.9c-2.2-0.2-4.3,0.6-5.8,2.2L129.2,410.5c-1.5,1.5-2.3,3.6-2.2,5.8
		S128.2,420.5,129.9,421.8z M211.4,349.6c15.1,12.2,30.2,22.3,40.7,28.8c1.2,0.8,2.6,1.1,4,1.1s2.8-0.4,4-1.1
		c13.3-8.3,32.9-21.6,51.1-37.6c38.4-33.9,42.6-55.3,42.6-62.9v-70.6l27.9-27.9v95.9c0,24.8-18,53.8-52.1,83.8
		c-28.3,24.9-59.7,43.7-71.9,50.6c-1,0.6-2.2,0.6-3.2,0c-10.3-5.8-36-21.1-61.4-41.7L211.4,349.6z M222,338.9l116.6-116.6v55.6
		c0,1.9-1.1,19.5-37.5,51.6c-15.7,13.8-32.6,25.5-45.1,33.6C246.6,357.1,234.3,348.7,222,338.9z M182.4,378.6
		c26.7,21.8,53.9,38,64.7,44.1c2.8,1.6,5.9,2.4,9,2.4c3.1,0,6.2-0.8,9-2.4c30.9-17.5,131.5-79.8,131.5-147.4v-97.6
		c0-3.7-1.1-7.2-3.1-10.2l21.5-21.5c22.5,32.4,34.3,70.2,34.3,110c0,106.6-86.7,193.3-193.3,193.3c-39.8,0-77.6-11.8-110-34.3
		L182.4,378.6z"/>
	<path id="XMLID_1121_" class="st0" d="M450,89c-2.7-3.1-7.4-3.5-10.6-0.8c-3.1,2.7-3.5,7.4-0.8,10.6C476.3,142.5,497,198.3,497,256
		c0,55.6-19.4,109.8-54.6,152.7c-2.6,3.2-2.2,7.9,1,10.6c1.4,1.1,3.1,1.7,4.8,1.7c2.2,0,4.3-0.9,5.8-2.7
		c37.4-45.6,58-103.2,58-162.2C512,194.7,490,135.4,450,89z"/>
	<path id="XMLID_1122_" class="st0" d="M241.4,232.2c2.9,2.9,7.7,2.9,10.6,0l130.8-130.8c1.5-1.5,2.3-3.6,2.2-5.8s-1.2-4.2-2.9-5.5
		C345.6,62.4,302,47.7,256,47.7C141.2,47.7,47.7,141.2,47.7,256c0,46,14.7,89.6,42.5,126.1c1.3,1.7,3.3,2.8,5.5,2.9
		c0.2,0,0.3,0,0.5,0c2,0,3.9-0.8,5.3-2.2l126.2-126.2c2.9-2.9,2.9-7.7,0-10.6c-2.9-2.9-7.7-2.9-10.6,0l-41.2,41.2
		c-2.3-5.2-2.5-8.3-2.5-9.3v-67.2c14.9-7.2,26.1-18.4,33.3-33.3h79l-44.2,44.2C238.5,224.6,238.5,229.3,241.4,232.2z M97.1,366
		c-22.5-32.4-34.3-70.2-34.3-110c0-106.6,86.7-193.3,193.3-193.3c39.8,0,77.6,11.8,110,34.3L344.1,119c-2.5-1.3-5.4-2-8.3-2H176.2
		c-9.5,0-17.5,7.4-18.2,16.9c-1.3,19.3-6.3,24.4-25.7,25.7c-9.5,0.6-16.9,8.6-16.9,18.2v97.6c0,17,6.4,34.9,19,53.3L97.1,366z
		 M201.8,162.5c-3,0-5.8,1.8-6.9,4.7c-6.1,15-16.8,25.7-31.8,31.8c-2.8,1.2-4.7,3.9-4.7,6.9v72c0,4.1,1.1,10.9,6.3,20.5l-19.3,19.3
		c-9.8-15-14.8-29.3-14.8-42.5v-97.6c0-1.7,1.3-3.1,2.9-3.2c26.7-1.8,37.8-12.9,39.6-39.6c0.1-1.6,1.5-2.9,3.2-2.9h154.9l-30.5,30.5
		L201.8,162.5L201.8,162.5z"/>
</g>
</svg>
