<?xml version="1.0" encoding="utf-8"?>
<!-- Generator: Adobe Illustrator 23.0.0, SVG Export Plug-In . SVG Version: 6.00 Build 0)  -->
<svg version="1.1" id="Capa_1" xmlns="http://www.w3.org/2000/svg" xmlns:xlink="http://www.w3.org/1999/xlink" x="0px" y="0px"
	 viewBox="0 0 512 512" style="enable-background:new 0 0 512 512;" xml:space="preserve">
<style type="text/css">
	.st0{fill:#98152E;}
</style>
<path class="st0" d="M175,351h162c33.1,0,60-26.9,60-60V184c0-33.1-26.9-60-60-60h-3V76.5C334,34.3,299,0,256,0
	c-43,0-78,34.3-78,76.5V124h-3c-33.1,0-60,26.9-60,60v107C115,324.1,141.9,351,175,351z M218,76.5c0-20.1,17-36.5,38-36.5
	s38,16.4,38,36.5V124h-76V76.5z M155,184c0-11,9-20,20-20h162c11,0,20,9,20,20v107c0,11-9,20-20,20H175c-11,0-20-9-20-20V184z
	 M512,361v101c0,27.6-22.4,50-50,50H50c-27.6,0-50-22.4-50-50V361c0-27.6,22.4-50,50-50h38v40H50c-5.5,0-10,4.5-10,10v101
	c0,5.5,4.5,10,10,10h412c5.5,0,10-4.5,10-10V361c0-5.5-4.5-10-10-10h-29v-40h29C489.6,311,512,333.4,512,361z M216,392
	c11,0,20,9,20,20s-9,20-20,20s-20-9-20-20S205,392,216,392z M136,392c11,0,20,9,20,20s-9,20-20,20s-20-9-20-20S125,392,136,392z
	 M296,392c11,0,20,9,20,20s-9,20-20,20s-20-9-20-20S285,392,296,392z M376,392c11,0,20,9,20,20s-9,20-20,20s-20-9-20-20
	S365,392,376,392z M236,237c0-11,9-20,20-20s20,9,20,20s-9,20-20,20S236,248,236,237z"/>
</svg>
