<?xml version="1.0" encoding="utf-8"?>
<!-- Generator: Adobe Illustrator 23.0.0, SVG Export Plug-In . SVG Version: 6.00 Build 0)  -->
<svg version="1.1" id="Capa_1" focusable="false" xmlns="http://www.w3.org/2000/svg" xmlns:xlink="http://www.w3.org/1999/xlink"
	 x="0px" y="0px" viewBox="0 0 384 512" style="enable-background:new 0 0 384 512;" xml:space="preserve">
<style type="text/css">
	.st0{fill:#FFFFFF;}
</style>
<path class="st0" d="M369.9,97.9L286,14c-9-9-21.2-14.1-33.9-14.1H48C21.5,0,0,21.5,0,48v416c0,26.5,21.5,48,48,48h288
	c26.5,0,48-21.5,48-48V131.9C384,119.2,378.9,106.9,369.9,97.9z M342.2,137h-99.1V37.9L342.2,137z M32.1,478.3V37.9h175.7V148
	c0,14.1,11.8,25.4,26.4,25.4h114.2v304.9H32.1z"/>
<g>
	<path class="st0" d="M153.2,414.8c0,27-19,40.6-57,40.6c-14,0-25-0.7-33.1-2.2c-3.7-0.6-6.3-1.7-7.8-3.3s-2.2-4.4-2.2-8.4V331.4
		c0-4,0.7-6.8,2.1-8.4c1.4-1.6,3.9-2.7,7.5-3.3c9.1-1.3,19.9-2,32.4-2c18.3,0,32.5,2.9,42.4,8.7c9.9,5.8,14.8,15.5,14.8,29.1v3.3
		c0,5.9-1.4,11.3-4.1,16c-2.7,4.8-6.4,8.3-11.1,10.6c4.9,2.4,8.9,5.9,11.8,10.6c2.9,4.6,4.3,10,4.3,16.2V414.8z M122.4,360.2v-2.7
		c0-5.1-1.9-8.8-5.6-11c-3.7-2.3-10.2-3.4-19.4-3.4c-7.5,0-12.1,0.1-13.8,0.2v31.3H104C116.3,374.5,122.4,369.7,122.4,360.2z
		 M123.2,414.1v-2c0-10.7-6.4-16.1-19.2-16.1H83.7v33.9c1,0,3.5,0,7.5,0.1s6.5,0.1,7.3,0.1c8.9,0,15.3-1.3,19-4
		C121.3,423.4,123.2,419.4,123.2,414.1z"/>
	<path class="st0" d="M273.4,362.9c0,8.1-1.5,15.1-4.5,21s-7.2,10.5-12.5,13.7c-5.3,3.2-11,5.5-17,7c-6,1.4-12.7,2.2-19.9,2.2
		c-0.7,0-5.6-0.2-14.7-0.5v44c0,1-0.4,1.8-1.1,2.5c-0.7,0.7-1.6,1.1-2.5,1.1h-23.4c-1,0-1.8-0.3-2.5-1s-1.1-1.5-1.1-2.4V328.7
		c0-2.9,0.6-4.9,1.8-6.2c1.2-1.2,3.3-2.1,6.3-2.5c10-1.6,22.3-2.4,36.8-2.4c7.4,0,14.1,0.7,20.2,2.1c6.1,1.4,11.8,3.7,17.1,6.9
		c5.3,3.2,9.5,7.7,12.5,13.6s4.5,12.9,4.5,21.1V362.9z M242.7,362.9v-1.6c0-6.3-1.9-10.8-5.7-13.7c-3.8-2.8-9.6-4.3-17.5-4.3
		c-5.4,0-10.3,0.2-14.7,0.5v36.9c2.7,0.2,7.5,0.4,14.7,0.4c8,0,13.8-1.5,17.6-4.5C240.8,373.6,242.7,369,242.7,362.9z"/>
</g>
</svg>
