<?xml version="1.0" encoding="utf-8"?>
<!-- Generator: Adobe Illustrator 23.0.0, SVG Export Plug-In . SVG Version: 6.00 Build 0)  -->
<svg version="1.1" id="Capa_1" xmlns="http://www.w3.org/2000/svg" xmlns:xlink="http://www.w3.org/1999/xlink" x="0px" y="0px"
	 viewBox="0 0 35 35" style="enable-background:new 0 0 35 35;" xml:space="preserve">
<style type="text/css">
	.st0{fill:#D8D6D6;}
	.st1{fill:#657C91;stroke:#FFFFFF;stroke-width:4;stroke-miterlimit:10;}
	.st2{fill:none;stroke:#FFFFFF;stroke-width:3;stroke-linecap:round;stroke-miterlimit:10;}
	.st3{fill:#333333;}
	.st4{fill:none;stroke:#98002E;stroke-width:22;stroke-miterlimit:10;}
	.st5{fill:none;stroke:#000000;stroke-width:12;stroke-miterlimit:10;}
	.st6{fill:#98002E;}
	.st7{fill:#ED1A3B;}
	.st8{fill:none;}
	.st9{fill:#FFFFFF;}
	.st10{fill:#E7E7E7;}
	.st11{opacity:0.23;}
	.st12{fill:#E6E6E7;}
	.st13{fill:#657C91;}
	.st14{fill:#661E36;}
	.st15{fill:none;stroke:#000000;stroke-miterlimit:10;}
	.st16{fill:none;stroke:#000000;stroke-width:0.75;stroke-miterlimit:10;}
	.st17{fill:none;stroke:#FFFFFF;stroke-miterlimit:10;}
	.st18{fill:none;stroke:#FFFFFF;stroke-width:3;stroke-miterlimit:10;}
	.st19{fill:#ED1A3B;stroke:#FFFFFF;stroke-width:0.25;stroke-miterlimit:10;}
	.st20{fill:#932121;}
</style>
<rect x="0.2" y="0.1" class="st6" width="35" height="35"/>
<g>
	<g>
		<path class="st9" d="M6.4,11.3h5.2c1.3,0,2.4,0.2,3.5,0.7s1.8,1.2,2.4,2.1c0.6,0.9,0.8,2,0.8,3.3c0,1.3-0.3,2.3-0.8,3.3
			s-1.4,1.6-2.4,2.1c-1,0.5-2.2,0.7-3.4,0.7H6.4V11.3z M11.6,21.1c0.7,0,1.3-0.2,1.8-0.5c0.5-0.3,0.9-0.8,1.2-1.3s0.4-1.2,0.4-1.8
			c0-1.1-0.3-1.9-0.9-2.6c-0.6-0.7-1.4-1-2.5-1h-2v7.3H11.6z"/>
		<path class="st9" d="M21.5,23.2c-0.7-0.4-1.3-1-1.7-1.7c-0.4-0.7-0.6-1.5-0.6-2.3s0.2-1.6,0.6-2.3s1-1.3,1.7-1.7
			c0.7-0.4,1.6-0.6,2.6-0.6c1,0,1.8,0.2,2.6,0.6c0.7,0.4,1.3,1,1.7,1.7c0.4,0.7,0.6,1.5,0.6,2.3s-0.2,1.6-0.6,2.3
			c-0.4,0.7-1,1.3-1.7,1.7c-0.7,0.4-1.6,0.6-2.6,0.6C23.1,23.8,22.2,23.6,21.5,23.2z M25.5,21c0.4-0.5,0.5-1.1,0.5-1.9
			c0-0.7-0.2-1.4-0.5-1.9c-0.4-0.5-0.8-0.7-1.4-0.7c-0.6,0-1.1,0.3-1.4,0.7c-0.3,0.5-0.5,1.1-0.5,1.9c0,0.8,0.2,1.4,0.5,1.9
			c0.3,0.5,0.8,0.7,1.4,0.7C24.6,21.8,25.1,21.5,25.5,21z"/>
	</g>
</g>
</svg>
