<?xml version="1.0" encoding="utf-8"?>
<!-- Generator: Adobe Illustrator 23.0.0, SVG Export Plug-In . SVG Version: 6.00 Build 0)  -->
<svg version="1.1" id="Capa_1" xmlns="http://www.w3.org/2000/svg" xmlns:xlink="http://www.w3.org/1999/xlink" x="0px" y="0px"
	 viewBox="0 0 512 512" style="enable-background:new 0 0 512 512;" xml:space="preserve">
<style type="text/css">
	.st0{fill:#980F2E;}
</style>
<path class="st0" d="M343.7,374.7l-17,17c-4.7,4.7-12.3,4.7-17,0L256,337.9l-53.7,53.7c-4.7,4.7-12.3,4.7-17,0l-17-17
	c-4.7-4.7-4.7-12.3,0-17l53.7-53.7l-53.7-53.7c-4.7-4.7-4.7-12.3,0-17l17-17c4.7-4.7,12.3-4.7,17,0l53.7,53.7l53.7-53.7
	c4.7-4.7,12.3-4.7,17,0l17,17c4.7,4.7,4.7,12.3,0,17L289.9,304l53.7,53.7C348.4,362.4,348.4,370,343.7,374.7z M480,112v352
	c0,26.5-21.5,48-48,48H80c-26.5,0-48-21.5-48-48V112c0-26.5,21.5-48,48-48h48V12c0-6.6,5.4-12,12-12h40c6.6,0,12,5.4,12,12v52h128
	V12c0-6.6,5.4-12,12-12h40c6.6,0,12,5.4,12,12v52h48C458.5,64,480,85.5,480,112z M432,458V160H80v298c0,3.3,2.7,6,6,6h340
	C429.3,464,432,461.3,432,458z"/>
</svg>
