<?xml version="1.0" encoding="utf-8"?>
<!-- Generator: Adobe Illustrator 23.0.0, SVG Export Plug-In . SVG Version: 6.00 Build 0)  -->
<svg version="1.1" id="Capa_1" focusable="false" xmlns="http://www.w3.org/2000/svg" xmlns:xlink="http://www.w3.org/1999/xlink"
	 x="0px" y="0px" viewBox="0 0 448 512" style="enable-background:new 0 0 448 512;" xml:space="preserve">
<style type="text/css">
	.st0{fill:#98002E;}
	.st1{fill:#FFFFFF;}
	.st2{enable-background:new    ;}
</style>
<path class="st0" d="M433.9,65.9L382,14c-9-9-21.2-14.1-33.9-14.1H176c-26.5,0-48,21.5-48,48v48H48c-26.5,0-48,21.5-48,48v320
	c0,26.5,21.5,48,48,48h224c26.5,0,48-21.5,48-48v-48h80c26.5,0,48-21.5,48-48v-268C448,87.2,442.9,74.9,433.9,65.9z M409,387H162.3
	c-3.9,0-7-3-7-6.7V35.7c0-3.7,3.1-6.7,7-6.7h123.4v98.4c0,14.8,12.5,26.9,27.9,26.9H416v226C416,384,412.9,387,409,387z M286,480.5
	H34.1c-3.9,0-7.1-3-7.1-6.6V134.1c0-3.7,3.2-6.6,7.1-6.6H122v247.2c0,29.3,25.5,53,57,53h114V474C293.1,477.6,289.9,480.5,286,480.5
	z M416,127.4H311V29h15.8c2.6,0,5.1,1,7,2.7l79.4,74.4c1.8,1.7,2.9,4.1,2.9,6.5L416,127.4L416,127.4z"/>
<rect x="36" y="193" class="st1" width="356" height="171"/>
<g class="st2">
	<path class="st0" d="M115.5,329.5c0,1.6-1.1,2.8-3.2,3.3c-4.9,1.6-12.1,2.5-21.6,2.5c-5.8,0-11.2-0.8-16.1-2.5
		c-4.9-1.6-9.5-4.2-13.6-7.6c-4.1-3.4-7.4-8.2-9.7-14.4c-2.4-6.1-3.6-13.4-3.6-21.7v-18.3c0-8.3,1.2-15.6,3.6-21.7
		c2.4-6.1,5.6-10.9,9.7-14.4c4.1-3.4,8.6-6,13.6-7.5c4.9-1.6,10.3-2.4,16.1-2.4c9.5,0,16.7,0.8,21.6,2.5c2.1,0.6,3.2,1.6,3.2,3.2
		v14.1c0,1.9-0.9,2.9-2.8,2.9h-0.4c-9.8-0.8-16.9-1.2-21.5-1.2c-12,0-18,8.2-18,24.5v18.3c0,16.4,6,24.5,18,24.5
		c4.5,0,11.7-0.4,21.5-1.2h0.4c1.8,0,2.8,1,2.8,2.9V329.5z"/>
	<path class="st0" d="M197.6,330.4c0,1.7-1,2.8-2.9,3c-8.8,1.3-18.2,1.9-28.2,1.9c-5.2,0-9.8-0.4-13.6-1.2c-3.8-0.8-7.5-2.3-11-4.4
		c-3.5-2.1-6.1-5.3-8-9.6c-1.8-4.3-2.8-9.6-2.8-16v-48.2c0-6.4,0.9-11.7,2.8-16c1.8-4.3,4.5-7.4,8.1-9.5c3.5-2.1,7.2-3.5,11-4.4
		c3.8-0.8,8.3-1.2,13.6-1.2c9.9,0,19.2,0.6,28,1.9c1.9,0.3,2.9,1.3,2.9,2.9v13.5c0,0.8-0.3,1.5-0.9,2c-0.6,0.6-1.3,0.9-2,0.9h-29.5
		c-3.5,0-5.9,0.7-7.3,2.1c-1.4,1.4-2,4-2,7.8v13.2h37.6c0.8,0,1.5,0.3,2,0.9s0.9,1.3,0.9,2v13.8c0,0.8-0.3,1.5-0.9,2
		c-0.6,0.6-1.3,0.9-2,0.9h-37.6v15.4c0,3.8,0.7,6.4,2,7.8c1.4,1.4,3.8,2.1,7.3,2.1h29.5c0.8,0,1.5,0.3,2,0.9c0.6,0.6,0.9,1.3,0.9,2
		V330.4z"/>
	<path class="st0" d="M299.2,332.3c0,1.2-0.7,1.7-2.2,1.7h-22.2c-1,0-1.9-1-2.9-2.9l-19.5-36.7l-1.6,0.1c-1.1,0-2.8,0-5.3-0.1
		c-2.5-0.1-4.1-0.1-5-0.1v36.9c0,0.8-0.3,1.5-0.9,2s-1.3,0.9-2,0.9h-18.9c-0.8,0-1.5-0.3-2-0.9s-0.9-1.3-0.9-2v-97.4
		c0-2.3,0.5-4,1.5-4.9c1-1,2.7-1.6,5.1-2c8.2-1.3,18.1-1.9,29.5-1.9c29.1,0,43.7,11.3,43.7,34v1.9c0,7.4-1.7,13.5-5.2,18.4
		c-3.4,4.9-8,8.4-13.6,10.7l21.9,40.9C299,331.3,299.2,331.8,299.2,332.3z M270.9,260.7v-1.9c0-8.6-6.3-12.9-19-12.9
		c-4.1,0-7.8,0.1-11.3,0.4v27.9c2.1,0.2,5.6,0.3,10.3,0.3c7.5,0,12.8-1,15.7-3.1C269.4,269.3,270.9,265.7,270.9,260.7z"/>
	<path class="st0" d="M381.4,243.8c0,0.8-0.3,1.4-0.9,2c-0.6,0.5-1.3,0.8-2.1,0.8h-23.5v84.5c0,0.8-0.3,1.5-0.9,2
		c-0.6,0.6-1.3,0.9-2,0.9h-19c-0.8,0-1.5-0.3-2-0.9c-0.6-0.6-0.9-1.3-0.9-2v-84.5h-23.7c-0.8,0-1.5-0.3-2-0.8
		c-0.6-0.5-0.9-1.2-0.9-2v-15c0-0.8,0.3-1.4,0.9-2c0.6-0.5,1.3-0.8,2-0.8h72c0.8,0,1.5,0.3,2.1,0.8c0.6,0.5,0.9,1.2,0.9,2V243.8z"/>
</g>
</svg>
