<svg id="Capa_1" data-name="Capa 1" xmlns="http://www.w3.org/2000/svg" viewBox="0 0 580 560"><defs><style>.cls-1{fill:#ed1a3b;}.cls-2{fill:#98002e;}.cls-3{fill:#fff;}</style></defs><title>logoapp-03</title><circle class="cls-1" cx="296.84" cy="279.87" r="267.16" transform="translate(-110.95 291.87) rotate(-45)"/><path class="cls-2" d="M491.31,299.32c0-27.76-19.26-50.84-44.67-55.72a39.9,39.9,0,0,0,.95-8.6c0-21.14-16.54-38.27-36.94-38.27a35.83,35.83,0,0,0-18.86,5.36c-8.33-43.14-45.09-75.65-89.18-75.65-50.23,0-91,42.19-91,94.24,0,2.78.13,5.54.35,8.26a66.6,66.6,0,0,0-41.78-14.77c-37.8,0-68.44,31.75-68.44,70.92,0,36.71,26.93,66.89,61.43,70.53L163,356H319.68v-50.2c0-8,5.49-13.14,13.35-13.14h74.81c8.27,0,13.57,4.3,12.61,13.14V356H441l-.13-.17C469.08,353.54,491.31,329.14,491.31,299.32Z"/><path class="cls-3" d="M487.47,299.32c0-27.76-19.25-50.84-44.67-55.72a39.9,39.9,0,0,0,.95-8.6c0-21.14-16.54-38.27-36.94-38.27A35.83,35.83,0,0,0,388,202.09c-8.33-43.14-45.09-75.65-89.17-75.65-50.24,0-90.95,42.19-90.95,94.24,0,2.78.12,5.54.35,8.26a66.65,66.65,0,0,0-41.79-14.77c-37.8,0-68.44,31.75-68.44,70.92,0,36.71,26.93,66.91,61.43,70.55l-.24.36H316.19V305.77c-.41-8,5.15-13.62,13-13.48H404c8.27,0,13.15,4.64,13,13.48V356h20.14l-.13-.18C465.24,353.56,487.47,329.14,487.47,299.32Z"/><path class="cls-3" d="M408,399.66c0,6-4.35,11-10.17,11h-61c-5.82,0-10.44-5-10.44-11v-85.6a10.62,10.62,0,0,1,10.44-10.87h61c5.82,0,10.17,4.86,10.17,10.87Z"/><rect class="cls-1" x="336.96" y="335.82" width="60.46" height="7.68"/><rect class="cls-1" x="336.96" y="353.09" width="60.46" height="7.68"/><rect class="cls-1" x="336.96" y="371.33" width="60.46" height="7.68"/><rect class="cls-1" x="336.96" y="389.56" width="60.46" height="7.68"/><rect class="cls-1" x="336.96" y="317.58" width="60.46" height="7.68"/><path class="cls-2" d="M197.63,292.29h11l13.18,18.37c1.6,2.24,2.88,4.15,4.08,6.23h.16a68.74,68.74,0,0,1,3.83-6.63l11.82-18h11.11v52.64H240.61V318.09c0-1.92,0-4.07.08-5.67h-.08c-.48,1.12-2.64,4.23-3.52,5.59L228.54,331h-5.35l-9.75-13.42a48.55,48.55,0,0,1-3.51-5.11h-.16c.08,1.76.08,3.83.08,5.27v27.24H197.63Z"/><path class="cls-2" d="M264.81,292.29h16.93A29.21,29.21,0,0,1,292.6,294c6.48,2.64,8.95,7.91,8.95,13.75a13.83,13.83,0,0,1-10.06,13.34v.15c1.59,1,4,3.76,6.71,8.71l8.3,14.94H292.6l-6.39-12c-2.71-5.11-4.47-7-5.67-7.27H277v19.25H264.81Zm16.05,23.56a9.5,9.5,0,0,0,4.8-1,6.46,6.46,0,0,0,3.19-5.83,6.6,6.6,0,0,0-3.67-6.07,9.47,9.47,0,0,0-4.24-.8H277v13.74Z"/><path class="cls-1" d="M195.71,292.29h11l13.18,18.37c1.6,2.24,2.88,4.15,4.08,6.23h.16a70.91,70.91,0,0,1,3.83-6.63l11.82-18h11.11v52.64H238.69V318.09c0-1.92,0-4.07.08-5.67h-.08c-.48,1.12-2.64,4.23-3.52,5.59L226.62,331h-5.35l-9.75-13.42a48.55,48.55,0,0,1-3.51-5.11h-.16c.08,1.76.08,3.83.08,5.27v27.24H195.71Z"/><path class="cls-1" d="M262.89,292.29h16.93A29.21,29.21,0,0,1,290.68,294c6.48,2.64,8.95,7.91,8.95,13.75a13.83,13.83,0,0,1-10.06,13.34v.15c1.59,1,4,3.76,6.71,8.71l8.31,14.94H290.68l-6.38-12c-2.72-5.11-4.48-7-5.68-7.27h-3.51v19.25H262.89Zm16.05,23.56a9.5,9.5,0,0,0,4.8-1,6.46,6.46,0,0,0,3.19-5.83,6.6,6.6,0,0,0-3.67-6.07,9.47,9.47,0,0,0-4.24-.8h-3.91v13.74Z"/></svg>